<svg width="4218" height="430" xmlns="http://www.w3.org/2000/svg" xmlns:xlink="http://www.w3.org/1999/xlink" xml:space="preserve" overflow="hidden"><g transform="translate(-127 -437)"><rect x="143.5" y="590.5" width="249" height="249" stroke="#BC0A23" stroke-width="4.58333" stroke-miterlimit="8" fill="#FFFFFF"/><rect x="390.5" y="590.5" width="249" height="249" stroke="#BC0A23" stroke-width="4.58333" stroke-miterlimit="8" fill="#FFA0AE"/><rect x="637.5" y="590.5" width="249" height="249" stroke="#BC0A23" stroke-width="4.58333" stroke-miterlimit="8" fill="#FFA0AE"/><rect x="884.5" y="590.5" width="249" height="249" stroke="#BC0A23" stroke-width="4.58333" stroke-miterlimit="8" fill="#FFA0AE"/><rect x="1131.5" y="590.5" width="249" height="249" stroke="#BC0A23" stroke-width="4.58333" stroke-miterlimit="8" fill="#FFA0AE"/><rect x="1378.5" y="590.5" width="249" height="249" stroke="#BC0A23" stroke-width="4.58333" stroke-miterlimit="8" fill="#FFA0AE"/><rect x="1625.5" y="590.5" width="249" height="249" stroke="#BC0A23" stroke-width="4.58333" stroke-miterlimit="8" fill="#FFA0AE"/><rect x="1872.5" y="590.5" width="249" height="249" stroke="#BC0A23" stroke-width="4.58333" stroke-miterlimit="8" fill="#FFA0AE"/><rect x="2119.5" y="590.5" width="249" height="249" stroke="#BC0A23" stroke-width="4.58333" stroke-miterlimit="8" fill="#FFA0AE"/><rect x="2366.5" y="590.5" width="249" height="249" stroke="#BC0A23" stroke-width="4.58333" stroke-miterlimit="8" fill="#FFA0AE"/><rect x="2613.5" y="590.5" width="249" height="249" stroke="#BC0A23" stroke-width="4.58333" stroke-miterlimit="8" fill="#FFA0AE"/><rect x="2860.5" y="590.5" width="249" height="249" stroke="#BC0A23" stroke-width="4.58333" stroke-miterlimit="8" fill="#FFA0AE"/><rect x="3107.5" y="590.5" width="249" height="249" stroke="#BC0A23" stroke-width="4.58333" stroke-miterlimit="8" fill="#FFA0AE"/><rect x="3354.5" y="590.5" width="249" height="249" stroke="#BC0A23" stroke-width="4.58333" stroke-miterlimit="8" fill="#FFFFFF"/><rect x="3601.5" y="590.5" width="249" height="249" stroke="#BC0A23" stroke-width="4.58333" stroke-miterlimit="8" fill="#FFFFFF"/><rect x="3848.5" y="590.5" width="249" height="249" stroke="#BC0A23" stroke-width="4.58333" stroke-miterlimit="8" fill="#FFFFFF"/><path d="M3367.34 582.5 3214.13 541.337 3287.24 541.337C3088.97 480.887 2481.67 439.501 1792.9 439.501L1820.99 439.5C2509.77 439.5 3117.07 480.886 3315.34 541.336L3388.45 541.337Z" fill="#FF1234" fill-rule="evenodd"/><path d="M1806.95 439.507C950.68 440.214 260.601 504.027 260.601 582.501L232.5 582.5C232.5 503.523 931.112 439.5 1792.89 439.5 1797.58 439.5 1802.26 439.502 1806.94 439.506Z" fill="#CD0E2A" fill-rule="evenodd"/><path d="M1806.95 439.507C950.68 440.214 260.601 504.027 260.601 582.501L232.5 582.5C232.5 503.523 931.112 439.5 1792.89 439.5L1820.99 439.5C2509.77 439.5 3117.07 480.886 3315.34 541.336L3388.45 541.337 3367.34 582.5 3214.13 541.337 3287.24 541.337C3088.97 480.887 2481.67 439.501 1792.9 439.501" stroke="#BC0A23" stroke-width="4.58333" stroke-miterlimit="8" fill="none" fill-rule="evenodd"/><rect x="4094.5" y="590.5" width="248" height="249" stroke="#BC0A23" stroke-width="4.58333" stroke-miterlimit="8" fill="#FFFFFF"/><rect x="212.5" y="591.5" width="58.0001" height="249" stroke="#BC0A23" stroke-width="4.58333" stroke-miterlimit="8" fill="#FF1234"/><text fill="#FFFFFF" font-family="DIN,DIN_MSFontService,sans-serif" font-weight="400" font-size="50" transform="matrix(1 0 0 1 226.745 643)">n</text><text fill="#FFFFFF" font-family="DIN,DIN_MSFontService,sans-serif" font-weight="400" font-size="50" transform="matrix(1 0 0 1 226.745 704)">e</text><text fill="#FFFFFF" font-family="DIN,DIN_MSFontService,sans-serif" font-weight="400" font-size="50" transform="matrix(1 0 0 1 226.745 764)">x</text><text fill="#FFFFFF" font-family="DIN,DIN_MSFontService,sans-serif" font-weight="400" font-size="50" transform="matrix(1 0 0 1 226.745 825)">t</text><rect x="146.5" y="590.5" width="58.0001" height="249" stroke="#BC0A23" stroke-width="4.58333" stroke-miterlimit="8" fill="#FF1234"/><text fill="#FFFFFF" font-family="DIN,DIN_MSFontService,sans-serif" font-weight="400" font-size="55" transform="matrix(1 0 0 1 160.209 735)">0</text><rect x="3425.5" y="591.5" width="58" height="249" stroke="#BC0A23" stroke-width="4.58333" stroke-miterlimit="8" fill="#FF1234"/><rect x="3359.5" y="590.5" width="58" height="249" stroke="#BC0A23" stroke-width="4.58333" stroke-miterlimit="8" fill="#FF1234"/><text fill="#FFFFFF" font-family="DIN,DIN_MSFontService,sans-serif" font-weight="400" font-size="55" transform="matrix(1 0 0 1 3373.92 735)">4</text><rect x="393.5" y="592.5" width="57.9997" height="248" stroke="#BC0A23" stroke-width="4.58333" stroke-miterlimit="8" fill="#FF1234"/><text fill="#FFFFFF" font-family="DIN,DIN_MSFontService,sans-serif" font-weight="400" font-size="55" transform="matrix(1 0 0 1 407.266 737)">3</text><rect x="1137.5" y="592.5" width="58.0001" height="248" stroke="#BC0A23" stroke-width="4.58333" stroke-miterlimit="8" fill="#FF1234"/><text fill="#FFFFFF" font-family="DIN,DIN_MSFontService,sans-serif" font-weight="400" font-size="55" transform="matrix(1 0 0 1 1151.6 737)">3</text><rect x="1878.5" y="592.5" width="57.9998" height="248" stroke="#BC0A23" stroke-width="4.58333" stroke-miterlimit="8" fill="#FF1234"/><text fill="#FFFFFF" font-family="DIN,DIN_MSFontService,sans-serif" font-weight="400" font-size="55" transform="matrix(1 0 0 1 1892.27 737)">3</text><rect x="2618.5" y="592.5" width="58" height="248" stroke="#BC0A23" stroke-width="4.58333" stroke-miterlimit="8" fill="#FF1234"/><text fill="#FFFFFF" font-family="DIN,DIN_MSFontService,sans-serif" font-weight="400" font-size="55" transform="matrix(1 0 0 1 2632.93 737)">3</text></g></svg>