<svg width="2745" height="786" xmlns="http://www.w3.org/2000/svg" xmlns:xlink="http://www.w3.org/1999/xlink" xml:space="preserve" overflow="hidden"><g transform="translate(-485 -1108)"><rect x="502.5" y="1250.5" width="803" height="158" stroke="#BC0A23" stroke-width="4.58333" stroke-miterlimit="8" fill="#FFFFFF"/><text font-family="DIN,DIN_MSFontService,sans-serif" font-weight="400" font-size="83" transform="matrix(1 0 0 1 800.985 1361)">count</text><rect x="502.5" y="1412.5" width="803" height="157" stroke="#FFFFFF" stroke-width="4.58333" stroke-miterlimit="8" fill="#BBC3CB"/><rect x="502.5" y="1572.5" width="803" height="158" stroke="#FFFFFF" stroke-width="4.58333" stroke-miterlimit="8" fill="#BBC3CB"/><rect x="502.5" y="1733.5" width="803" height="158" stroke="#FFFFFF" stroke-width="4.58333" stroke-miterlimit="8" fill="#BBC3CB"/><rect x="1748.5" y="1250.5" width="803" height="158" stroke="#BC0A23" stroke-width="4.58333" stroke-miterlimit="8" fill="#FFFFFF"/><text font-family="DIN,DIN_MSFontService,sans-serif" font-weight="400" font-size="83" transform="matrix(1 0 0 1 2047.65 1361)">count</text><rect x="1748.5" y="1572.5" width="803" height="158" stroke="#FFFFFF" stroke-width="4.58333" stroke-miterlimit="8" fill="#BBC3CB"/><rect x="1748.5" y="1733.5" width="803" height="158" stroke="#FFFFFF" stroke-width="4.58333" stroke-miterlimit="8" fill="#BBC3CB"/><rect x="1748.5" y="1411.5" width="803" height="158" stroke="#BC0A23" stroke-width="4.58333" stroke-miterlimit="8" fill="#FFFFFF"/><text font-family="DIN,DIN_MSFontService,sans-serif" font-weight="400" font-size="83" transform="matrix(1 0 0 1 2071.43 1521)">next</text><text font-family="DIN,DIN_MSFontService,sans-serif" font-weight="400" font-size="83" transform="matrix(1 0 0 1 534.751 1215)">reserved</text><text font-family="DIN,DIN_MSFontService,sans-serif" font-weight="400" font-size="83" transform="matrix(1 0 0 1 1781.42 1215)">free block</text><path d="M2614 1250C2646.31 1250 2672.5 1254.36 2672.5 1259.75L2672.5 1319.25C2672.5 1324.63 2698.69 1329 2731 1329 2698.69 1329 2672.5 1333.36 2672.5 1338.75L2672.5 1398.25C2672.5 1403.64 2646.31 1408 2614 1408" stroke="#FF1234" stroke-width="2.29167" stroke-miterlimit="8" fill="none" fill-rule="evenodd"/><text font-family="DIN,DIN_MSFontService,sans-serif" font-weight="400" font-size="83" transform="matrix(1 0 0 1 2829.5 1360)">Header</text><path d="M2706 1250C2754.33 1250 2793.5 1256.53 2793.5 1264.58L2793.5 1555.92C2793.5 1563.97 2832.68 1570.5 2881 1570.5 2832.68 1570.5 2793.5 1577.03 2793.5 1585.08L2793.5 1876.42C2793.5 1884.47 2754.33 1891 2706 1891" stroke="#FF1234" stroke-width="2.29167" stroke-miterlimit="8" fill="none" fill-rule="evenodd"/><text font-family="DIN,DIN_MSFontService,sans-serif" font-weight="400" font-size="83" transform="matrix(1 0 0 1 2966.17 1603)">Block</text></g></svg>