<svg width="2988" height="786" xmlns="http://www.w3.org/2000/svg" xmlns:xlink="http://www.w3.org/1999/xlink" xml:space="preserve" overflow="hidden"><g transform="translate(-353 -1339)"><rect x="619.5" y="1481.5" width="803" height="158" stroke="#BC0A23" stroke-width="4.58333" stroke-miterlimit="8" fill="#FFFFFF"/><text font-family="DIN,DIN_MSFontService,sans-serif" font-weight="400" font-size="83" transform="matrix(1 0 0 1 903.996 1592)">length</text><rect x="619.5" y="1643.5" width="803" height="157" stroke="#FFFFFF" stroke-width="4.58333" stroke-miterlimit="8" fill="#BBC3CB"/><rect x="619.5" y="1803.5" width="803" height="158" stroke="#FFFFFF" stroke-width="4.58333" stroke-miterlimit="8" fill="#BBC3CB"/><rect x="619.5" y="1964.5" width="803" height="158" stroke="#FFFFFF" stroke-width="4.58333" stroke-miterlimit="8" fill="#BBC3CB"/><rect x="1866.5" y="1481.5" width="803" height="158" stroke="#BC0A23" stroke-width="4.58333" stroke-miterlimit="8" fill="#FFFFFF"/><text font-family="DIN,DIN_MSFontService,sans-serif" font-weight="400" font-size="83" transform="matrix(1 0 0 1 2150.66 1592)">length</text><rect x="1866.5" y="1964.5" width="803" height="158" stroke="#FFFFFF" stroke-width="4.58333" stroke-miterlimit="8" fill="#BBC3CB"/><rect x="1866.5" y="1642.5" width="803" height="158" stroke="#BC0A23" stroke-width="4.58333" stroke-miterlimit="8" fill="#FFFFFF"/><text font-family="DIN,DIN_MSFontService,sans-serif" font-weight="400" font-size="83" transform="matrix(1 0 0 1 2188.76 1752)">next</text><text font-family="DIN,DIN_MSFontService,sans-serif" font-weight="400" font-size="83" transform="matrix(1 0 0 1 652.085 1446)">reserved</text><text font-family="DIN,DIN_MSFontService,sans-serif" font-weight="400" font-size="83" transform="matrix(1 0 0 1 1898.75 1446)">free block</text><path d="M2731 1481C2763.31 1481 2789.5 1485.36 2789.5 1490.75L2789.5 1550.25C2789.5 1555.63 2815.69 1560 2848 1560 2815.69 1560 2789.5 1564.36 2789.5 1569.75L2789.5 1629.25C2789.5 1634.64 2763.31 1639 2731 1639" stroke="#FF1234" stroke-width="2.29167" stroke-miterlimit="8" fill="none" fill-rule="evenodd"/><text font-family="DIN,DIN_MSFontService,sans-serif" font-weight="400" font-size="83" transform="matrix(1 0 0 1 2946.84 1591)">Header</text><path d="M2823 1481C2871.32 1481 2910.5 1487.53 2910.5 1495.58L2910.5 1786.92C2910.5 1794.97 2949.68 1801.5 2998 1801.5 2949.68 1801.5 2910.5 1808.03 2910.5 1816.08L2910.5 2107.42C2910.5 2115.47 2871.32 2122 2823 2122" stroke="#FF1234" stroke-width="2.29167" stroke-miterlimit="8" fill="none" fill-rule="evenodd"/><text font-family="DIN,DIN_MSFontService,sans-serif" font-weight="400" font-size="83" transform="matrix(1 0 0 1 3083.5 1834)">Block</text><rect x="1866.5" y="1803.5" width="803" height="158" stroke="#BC0A23" stroke-width="4.58333" stroke-miterlimit="8" fill="#FFFFFF"/><text font-family="DIN,DIN_MSFontService,sans-serif" font-weight="400" font-size="83" transform="matrix(1 0 0 1 2111.7 1913)">previous</text><rect x="1866.5" y="1481.5" width="66" height="158" stroke="#BC0A23" stroke-width="4.58333" stroke-miterlimit="8" fill="#FFFFFF"/><rect x="619.5" y="1481.5" width="67.0001" height="158" stroke="#BC0A23" stroke-width="4.58333" stroke-miterlimit="8" fill="#FFFFFF"/><text font-family="DIN,DIN_MSFontService,sans-serif" font-weight="400" font-size="64" transform="matrix(1 0 0 1 392.333 1505)">status</text><path d="M0.282139-1.11055 2.68405-0.500345 5.14341 1.33526 7.41785 4.11756 9.57082 7.76857 11.6233 12.234 13.5745 17.4556 15.4146 23.3707 17.1301 29.9132 18.7059 37.0155 20.126 44.6089 21.374 52.6242 22.435 61.0071 23.3356 73.6128 21.0498 73.7761 20.1514 61.2016 20.1575 61.2638 19.1025 52.9282 19.1071 52.9606 17.8643 44.9787 17.8702 45.013 16.4568 37.4556 16.4645 37.4931 14.8976 30.4309 14.9079 30.4733 13.2044 23.9769 13.2187 24.0267 11.3958 18.167 11.4166 18.2277 9.49133 13.0754 9.52356 13.1529 7.513 8.77878 7.56712 8.88226 5.48831 5.35702 5.58817 5.5002 3.45817 2.89458 3.65994 3.08764 1.49582 1.4724 1.89905 1.66469-0.282139 1.11055ZM35.706 68.4543 23.2963 96.5845 8.23793 69.7786Z" fill="#FF1234" transform="matrix(1.83697e-16 1 1 -1.83697e-16 523 1537)"/><text font-family="DIN,DIN_MSFontService,sans-serif" font-weight="400" font-size="64" transform="matrix(1 0 0 1 1639 1515)">status</text><path d="M0.282139-1.11055 2.68405-0.500345 5.14341 1.33526 7.41785 4.11756 9.57082 7.76857 11.6233 12.234 13.5745 17.4556 15.4146 23.3707 17.1301 29.9132 18.7059 37.0155 20.126 44.6089 21.374 52.6242 22.435 61.0071 23.3356 73.6128 21.0498 73.7761 20.1514 61.2016 20.1575 61.2638 19.1025 52.9282 19.1071 52.9606 17.8643 44.9787 17.8702 45.013 16.4568 37.4556 16.4645 37.4931 14.8976 30.4309 14.9079 30.4733 13.2044 23.9769 13.2187 24.0267 11.3958 18.167 11.4166 18.2277 9.49133 13.0754 9.52356 13.1529 7.513 8.77878 7.56712 8.88226 5.48831 5.35702 5.58817 5.5002 3.45817 2.89458 3.65994 3.08764 1.49582 1.4724 1.89905 1.66469-0.282139 1.11055ZM35.706 68.4543 23.2963 96.5845 8.23793 69.7786Z" fill="#FF1234" transform="matrix(1.83697e-16 1 1 -1.83697e-16 1769 1547)"/></g></svg>