<svg width="1176" height="2001" xmlns="http://www.w3.org/2000/svg" xmlns:xlink="http://www.w3.org/1999/xlink" xml:space="preserve" overflow="hidden"><g transform="translate(-940 -358)"><rect x="1751.5" y="360.5" width="362" height="1996" stroke="#BC0A23" stroke-width="4.58333" stroke-miterlimit="8" fill="#FFFFFF"/><path d="M942.5 623.501 1691.5 623.501 1691.5 593.5 1751.5 653.5 1691.5 713.5 1691.5 683.501 942.5 683.501Z" stroke="#BC0A23" stroke-width="4.58333" stroke-miterlimit="8" fill="#FF1234" fill-rule="evenodd"/><text fill="#FFFFFF" font-family="DIN,DIN_MSFontService,sans-serif" font-weight="400" font-size="83" transform="matrix(1 0 0 1 1088.04 685)">Stack pointer</text><rect x="1751.5" y="2031.5" width="362" height="325" stroke="#BC0A23" stroke-width="4.58333" stroke-miterlimit="8" fill="#FF1234"/><rect x="1751.5" y="1705.5" width="362" height="326" stroke="#BC0A23" stroke-width="4.58333" stroke-miterlimit="8" fill="#FF7185"/><rect x="1751.5" y="1494.5" width="362" height="211" stroke="#BC0A23" stroke-width="4.58333" stroke-miterlimit="8" fill="#FF1234"/><rect x="1748.5" y="1251.5" width="362" height="239" stroke="#BC0A23" stroke-width="4.58333" stroke-miterlimit="8" fill="#FF7185"/><text fill="#FFFFFF" font-family="DIN,DIN_MSFontService,sans-serif" font-weight="400" font-size="83" transform="matrix(1 0 0 1 1903.81 1402)">A</text><rect x="1751.5" y="1159.5" width="362" height="96.9999" stroke="#BC0A23" stroke-width="4.58333" stroke-miterlimit="8" fill="#FF1234"/><text fill="#FFFFFF" font-family="DIN,DIN_MSFontService,sans-serif" font-weight="400" font-size="83" transform="matrix(1 0 0 1 1904.37 1239)">B</text><rect x="1751.5" y="921.5" width="362" height="239" stroke="#BC0A23" stroke-width="4.58333" stroke-miterlimit="8" fill="#FF7185"/><text fill="#FFFFFF" font-family="DIN,DIN_MSFontService,sans-serif" font-weight="400" font-size="83" transform="matrix(1 0 0 1 1905.51 1072)">C</text><rect x="1751.5" y="653.5" width="362" height="270" stroke="#BC0A23" stroke-width="4.58333" stroke-miterlimit="8" fill="#FF1234"/><text fill="#FFFFFF" font-family="DIN,DIN_MSFontService,sans-serif" font-weight="400" font-size="83" transform="matrix(1 0 0 1 1904.08 820)">D</text></g></svg>