<svg width="1176" height="2001" xmlns="http://www.w3.org/2000/svg" xmlns:xlink="http://www.w3.org/1999/xlink" xml:space="preserve" overflow="hidden"><g transform="translate(-940 -358)"><rect x="1751.5" y="360.5" width="362" height="1996" stroke="#BC0A23" stroke-width="4.58333" stroke-miterlimit="8" fill="#FFFFFF"/><path d="M942.5 1468.5 1691.5 1468.5 1691.5 1438.5 1751.5 1498.5 1691.5 1558.5 1691.5 1528.5 942.5 1528.5Z" stroke="#BC0A23" stroke-width="4.58333" stroke-miterlimit="8" fill="#FF1234" fill-rule="evenodd"/><text fill="#FFFFFF" font-family="DIN,DIN_MSFontService,sans-serif" font-weight="400" font-size="83" transform="matrix(1 0 0 1 1088.04 1529)">Stack pointer</text><rect x="1751.5" y="2031.5" width="362" height="325" stroke="#BC0A23" stroke-width="4.58333" stroke-miterlimit="8" fill="#FF1234"/><rect x="1751.5" y="1705.5" width="362" height="326" stroke="#BC0A23" stroke-width="4.58333" stroke-miterlimit="8" fill="#FF7185"/><rect x="1751.5" y="1494.5" width="362" height="211" stroke="#BC0A23" stroke-width="4.58333" stroke-miterlimit="8" fill="#FF1234"/><path d="M1001.65 1207.17 1711.71 1445.06 1721.21 1416.69 1758.94 1492.43 1683.19 1530.16 1692.7 1501.79 982.639 1263.91Z" stroke="#BC0A23" stroke-width="4.58333" stroke-miterlimit="8" fill="#FFC000" fill-rule="evenodd"/><text font-family="DIN,DIN_MSFontService,sans-serif" font-weight="400" font-size="83" transform="matrix(0.948203 0.317664 -0.317664 0.948203 1221.51 1346)">marker</text></g></svg>