<svg width="2779" height="807" xmlns="http://www.w3.org/2000/svg" xmlns:xlink="http://www.w3.org/1999/xlink" xml:space="preserve" overflow="hidden"><g transform="translate(-671 -758)"><rect x="673.5" y="985.5" width="257" height="241" stroke="#FF1234" stroke-width="4.58333" stroke-miterlimit="8" fill="#FFFFFF"/><text font-family="DIN,DIN_MSFontService,sans-serif" font-weight="400" font-size="83" transform="matrix(1 0 0 1 779.962 1137)">1</text><rect x="1680.5" y="985.5" width="257" height="241" stroke="#FF1234" stroke-width="4.58333" stroke-miterlimit="8" fill="#FFFFFF"/><text font-family="DIN,DIN_MSFontService,sans-serif" font-weight="400" font-size="83" transform="matrix(1 0 0 1 1786.99 1137)">3</text><rect x="1177.5" y="985.5" width="256" height="241" stroke="#FF1234" stroke-width="4.58333" stroke-miterlimit="8" fill="#FFFFFF"/><text font-family="DIN,DIN_MSFontService,sans-serif" font-weight="400" font-size="83" transform="matrix(1 0 0 1 1283.48 1137)">2</text><rect x="2184.5" y="985.5" width="256" height="241" stroke="#FF1234" stroke-width="4.58333" stroke-miterlimit="8" fill="#FFFFFF"/><text font-family="DIN,DIN_MSFontService,sans-serif" font-weight="400" font-size="83" transform="matrix(1 0 0 1 2290.51 1137)">4</text><rect x="2687.5" y="985.5" width="257" height="241" stroke="#FF1234" stroke-width="4.58333" stroke-miterlimit="8" fill="#FFFFFF"/><text font-family="DIN,DIN_MSFontService,sans-serif" font-weight="400" font-size="83" transform="matrix(1 0 0 1 2794.02 1137)">5</text><rect x="3191.5" y="985.5" width="256" height="241" stroke="#FF1234" stroke-width="4.58333" stroke-miterlimit="8" fill="#FFFFFF"/><text font-family="DIN,DIN_MSFontService,sans-serif" font-weight="400" font-size="83" transform="matrix(1 0 0 1 3297.54 1137)">6</text><path d="M0-1.14583 310.272-1.14583 310.272 504.661 27.5 504.661 27.5 502.369 309.126 502.369 307.98 503.515 307.98 0 309.126 1.14583 0 1.14583ZM32.0833 517.265 4.58333 503.515 32.0833 489.765Z" fill="#FF1234" transform="matrix(1.83697e-16 1 1 -1.83697e-16 1307 1224)"/><text font-family="DIN,DIN_MSFontService,sans-serif" font-weight="400" font-size="83" transform="matrix(1 0 0 1 1445.29 1497)">delete</text><path d="M2826.36 990.729 2822.94 990.729 2822.94 759.367 2824.08 760.513 2312 760.513 2313.15 759.367 2313.15 962.083 2310.85 962.083 2310.85 758.222 2825.23 758.222 2825.23 989.583 2824.08 988.437 2826.36 988.437ZM2325.75 957.5 2312 985 2298.25 957.5Z" fill="#FF1234"/><text font-family="DIN,DIN_MSFontService,sans-serif" font-weight="400" font-size="83" transform="matrix(1 0 0 1 2471.43 874)">delete</text></g></svg>