<svg width="2733" height="1820" xmlns="http://www.w3.org/2000/svg" xmlns:xlink="http://www.w3.org/1999/xlink" xml:space="preserve" overflow="hidden"><defs><filter id="fx0" x="-10%" y="-10%" width="120%" height="120%" filterUnits="userSpaceOnUse" primitiveUnits="userSpaceOnUse"><feComponentTransfer color-interpolation-filters="sRGB"><feFuncR type="discrete" tableValues="0 0"/><feFuncG type="discrete" tableValues="0 0"/><feFuncB type="discrete" tableValues="0 0"/><feFuncA type="linear" slope="0.631373" intercept="0"/></feComponentTransfer><feGaussianBlur stdDeviation="6.875 6.875"/></filter><filter id="fx1" x="-10%" y="-10%" width="120%" height="120%" filterUnits="userSpaceOnUse" primitiveUnits="userSpaceOnUse"><feComponentTransfer color-interpolation-filters="sRGB"><feFuncR type="discrete" tableValues="0 0"/><feFuncG type="discrete" tableValues="0 0"/><feFuncB type="discrete" tableValues="0 0"/><feFuncA type="linear" slope="0.631373" intercept="0"/></feComponentTransfer><feGaussianBlur stdDeviation="6.875 6.875"/></filter><filter id="fx2" x="-10%" y="-10%" width="120%" height="120%" filterUnits="userSpaceOnUse" primitiveUnits="userSpaceOnUse"><feComponentTransfer color-interpolation-filters="sRGB"><feFuncR type="discrete" tableValues="0 0"/><feFuncG type="discrete" tableValues="0 0"/><feFuncB type="discrete" tableValues="0 0"/><feFuncA type="linear" slope="0.631373" intercept="0"/></feComponentTransfer><feGaussianBlur stdDeviation="6.875 6.875"/></filter><filter id="fx3" x="-10%" y="-10%" width="120%" height="120%" filterUnits="userSpaceOnUse" primitiveUnits="userSpaceOnUse"><feComponentTransfer color-interpolation-filters="sRGB"><feFuncR type="discrete" tableValues="0 0"/><feFuncG type="discrete" tableValues="0 0"/><feFuncB type="discrete" tableValues="0 0"/><feFuncA type="linear" slope="0.631373" intercept="0"/></feComponentTransfer><feGaussianBlur stdDeviation="6.875 6.875"/></filter><filter id="fx4" x="-10%" y="-10%" width="120%" height="120%" filterUnits="userSpaceOnUse" primitiveUnits="userSpaceOnUse"><feComponentTransfer color-interpolation-filters="sRGB"><feFuncR type="discrete" tableValues="0 0"/><feFuncG type="discrete" tableValues="0 0"/><feFuncB type="discrete" tableValues="0 0"/><feFuncA type="linear" slope="0.631373" intercept="0"/></feComponentTransfer><feGaussianBlur stdDeviation="6.875 6.875"/></filter><filter id="fx5" x="-10%" y="-10%" width="120%" height="120%" filterUnits="userSpaceOnUse" primitiveUnits="userSpaceOnUse"><feComponentTransfer color-interpolation-filters="sRGB"><feFuncR type="discrete" tableValues="0 0"/><feFuncG type="discrete" tableValues="0 0"/><feFuncB type="discrete" tableValues="0 0"/><feFuncA type="linear" slope="0.631373" intercept="0"/></feComponentTransfer><feGaussianBlur stdDeviation="6.875 6.875"/></filter><clipPath id="clip6"><rect x="625" y="532" width="2733" height="1820"/></clipPath><clipPath id="clip7"><rect x="-3" y="-3" width="317" height="560"/></clipPath><clipPath id="clip8"><rect x="0" y="0" width="312" height="555"/></clipPath><clipPath id="clip9"><rect x="52" y="45" width="236" height="107"/></clipPath><clipPath id="clip10"><rect x="0" y="0" width="338" height="217"/></clipPath><linearGradient x1="1348" y1="1781" x2="1348" y2="2292" gradientUnits="userSpaceOnUse" spreadMethod="reflect" id="fill11"><stop offset="0" stop-color="#4D4E50"/><stop offset="0.5" stop-color="#202328"/><stop offset="1" stop-color="#1A1E23"/></linearGradient><clipPath id="clip12"><rect x="-3" y="-3" width="317" height="873"/></clipPath><clipPath id="clip13"><rect x="0" y="0" width="313" height="869"/></clipPath><clipPath id="clip14"><rect x="52" y="41" width="170" height="111"/></clipPath><clipPath id="clip15"><rect x="0" y="0" width="273" height="217"/></clipPath><linearGradient x1="1898.5" y1="1471" x2="1898.5" y2="2296" gradientUnits="userSpaceOnUse" spreadMethod="reflect" id="fill16"><stop offset="0" stop-color="#4D4E50"/><stop offset="0.5" stop-color="#202328"/><stop offset="1" stop-color="#1A1E23"/></linearGradient><clipPath id="clip17"><rect x="-3" y="-3" width="354" height="343"/></clipPath><clipPath id="clip18"><rect x="0" y="0" width="350" height="339"/></clipPath><clipPath id="clip19"><rect x="56" y="45" width="254" height="107"/></clipPath><clipPath id="clip20"><rect x="0" y="0" width="359" height="218"/></clipPath><linearGradient x1="2505" y1="891" x2="2505" y2="1186" gradientUnits="userSpaceOnUse" spreadMethod="reflect" id="fill21"><stop offset="0" stop-color="#4D4E50"/><stop offset="0.5" stop-color="#202328"/><stop offset="1" stop-color="#1A1E23"/></linearGradient></defs><g clip-path="url(#clip6)" transform="translate(-625 -532)"><rect x="1878.5" y="534.5" width="1253" height="273" stroke="#BC0A23" stroke-width="4.58333" stroke-miterlimit="8" fill="#FF1234"/><text fill="#FFFFFF" font-family="DIN,DIN_MSFontService,sans-serif" font-weight="400" font-size="83" transform="matrix(1 0 0 1 2255.91 702)">Main Memory</text><rect x="765.5" y="1004.5" width="2275" height="1067" stroke="#BC0A23" stroke-width="4.58333" stroke-miterlimit="8" fill="#D9D9D9"/><rect x="1548.5" y="1081.5" width="652" height="157" stroke="#BC0A23" stroke-width="4.58333" stroke-miterlimit="8" fill="#FF1234"/><text fill="#FFFFFF" font-family="DIN,DIN_MSFontService,sans-serif" font-weight="400" font-size="83" transform="matrix(1 0 0 1 1705.09 1191)">L3 Cache</text><rect x="1548.5" y="1302.5" width="652" height="156" stroke="#BC0A23" stroke-width="4.58333" stroke-miterlimit="8" fill="#FF1234"/><text fill="#FFFFFF" font-family="DIN,DIN_MSFontService,sans-serif" font-weight="400" font-size="83" transform="matrix(1 0 0 1 1705.09 1411)">L2 Cache<tspan fill="#000000" font-size="83" x="-906.766" y="-299">CPU</tspan></text><path d="M681.773 900.844 3301.81 900.844 3301.81 911.157 681.773 911.156ZM686.937 921.469 656 906 686.937 890.531ZM3296.66 890.532 3327.6 906 3296.66 921.469Z" fill="#0D0F11"/><path d="M5.15636 25.7812 5.15651 62.1314-5.15599 62.1314-5.15614 25.7813ZM-15.4686 30.9376 0 0 15.4689 30.9374ZM15.469 56.9751 0.000360892 87.9127-15.4685 56.9752Z" fill="#0D0F11" transform="matrix(1 0 0 -1 2505 894.913)"/><text font-family="DIN,DIN_MSFontService,sans-serif" font-weight="400" font-size="83" transform="matrix(1 0 0 1 732.865 885)">Bus</text><path d="M5.1563 25.7812 5.15656 149.751-5.15594 149.751-5.1562 25.7812ZM-15.4687 30.9375 0 0 15.4688 30.9375ZM15.469 144.594 0.000360892 175.532-15.4685 144.594Z" fill="#0D0F11" transform="matrix(1 0 0 -1 1871 1081.53)"/><path d="M6.79053 25.3998 7.59673 38.0108-2.69476 38.6687-3.50096 26.0577ZM-13.4635 31.8613 0 0 17.411 29.8876ZM17.5593 32.2072 4.09577 64.0685-13.3152 34.1809Z" fill="#0D0F11" transform="matrix(1 0 0 -1 1874 1302.07)"/><rect x="814.5" y="1481.5" width="1064" height="538" stroke="#BC0A23" stroke-width="4.58333" stroke-miterlimit="8" fill="#A6A6A6"/><rect x="854.5" y="1594.5" width="473" height="156" stroke="#BC0A23" stroke-width="4.58333" stroke-miterlimit="8" fill="#FF1234"/><text fill="#FFFFFF" font-family="DIN,DIN_MSFontService,sans-serif" font-weight="400" font-size="83" transform="matrix(1 0 0 1 911.315 1703)">L1i Cache</text><rect x="1366.5" y="1594.5" width="473" height="156" stroke="#BC0A23" stroke-width="4.58333" stroke-miterlimit="8" fill="#FF1234"/><text fill="#FFFFFF" font-family="DIN,DIN_MSFontService,sans-serif" font-weight="400" font-size="83" transform="matrix(1 0 0 1 1411.25 1703)">L1d Cache<tspan fill="#000000" font-family="Arial,Arial_MSFontService,sans-serif" font-size="83" x="-563.784" y="-135">Core</tspan></text><rect x="854.5" y="1811.5" width="473" height="156" stroke="#BC0A23" stroke-width="4.58333" stroke-miterlimit="8" fill="#890014"/><text fill="#FFFFFF" font-family="DIN,DIN_MSFontService,sans-serif" font-weight="400" font-size="83" transform="matrix(1 0 0 1 961.446 1920)">Thread</text><rect x="1366.5" y="1811.5" width="473" height="156" stroke="#BC0A23" stroke-width="4.58333" stroke-miterlimit="8" fill="#890014"/><text fill="#FFFFFF" font-family="DIN,DIN_MSFontService,sans-serif" font-weight="400" font-size="83" transform="matrix(1 0 0 1 1473.41 1920)">Thread</text><path d="M6.14831 25.5628 6.4976 34.598-3.80721 34.9964-4.15649 25.9612ZM-14.2621 31.512 0 0 16.6523 30.3169ZM16.6032 29.0472 2.34111 60.5592-14.3112 30.2423Z" fill="#0D0F11" transform="matrix(1 0 0 -1 1091 1810.56)"/><path d="M5.1564 25.7812 5.15646 34.7783-5.15604 34.7783-5.1561 25.7813ZM-15.4686 30.9376 0 0 15.4689 30.9374ZM15.4689 29.622 0.000360892 60.5595-15.4686 29.6221Z" fill="#0D0F11" transform="matrix(1 0 0 -1 1603 1810.56)"/><path d="M1576.76 1812.65 1116 1758.15 1117.21 1747.91 1577.97 1802.41ZM1574.06 1791.56 1602.97 1810.56 1570.43 1822.29ZM1119.91 1769 1091 1750 1123.54 1738.27Z" fill="#0D0F11"/><path d="M26.2092-2.09198 486.971 52.4105 485.76 62.6516 24.9978 8.14912ZM28.9062 18.9958 0 0 32.5404-11.7275ZM483.062 41.5637 511.968 60.5595 479.428 72.287Z" fill="#0D0F11" transform="matrix(-1 0 0 1 1602.97 1750)"/><rect x="1920.5" y="1487.5" width="1064" height="537" stroke="#BC0A23" stroke-width="4.58333" stroke-miterlimit="8" fill="#A6A6A6"/><rect x="1960.5" y="1599.5" width="473" height="156" stroke="#BC0A23" stroke-width="4.58333" stroke-miterlimit="8" fill="#FF1234"/><text fill="#FFFFFF" font-family="DIN,DIN_MSFontService,sans-serif" font-weight="400" font-size="83" transform="matrix(1 0 0 1 2017.17 1709)">L1i Cache</text><rect x="2472.5" y="1599.5" width="473" height="156" stroke="#BC0A23" stroke-width="4.58333" stroke-miterlimit="8" fill="#FF1234"/><text fill="#FFFFFF" font-family="DIN,DIN_MSFontService,sans-serif" font-weight="400" font-size="83" transform="matrix(1 0 0 1 2517.1 1709)">L1d Cache<tspan fill="#000000" font-family="Arial,Arial_MSFontService,sans-serif" font-size="83" x="-563.784" y="-136">Core</tspan></text><rect x="1960.5" y="1816.5" width="473" height="156" stroke="#BC0A23" stroke-width="4.58333" stroke-miterlimit="8" fill="#890014"/><text fill="#FFFFFF" font-family="DIN,DIN_MSFontService,sans-serif" font-weight="400" font-size="83" transform="matrix(1 0 0 1 2067.3 1925)">Thread</text><rect x="2472.5" y="1816.5" width="473" height="156" stroke="#BC0A23" stroke-width="4.58333" stroke-miterlimit="8" fill="#890014"/><text fill="#FFFFFF" font-family="DIN,DIN_MSFontService,sans-serif" font-weight="400" font-size="83" transform="matrix(1 0 0 1 2579.26 1925)">Thread</text><path d="M6.14831 25.5628 6.4976 34.598-3.80721 34.9964-4.15649 25.9612ZM-14.2621 31.512 0 0 16.6523 30.3169ZM16.6032 29.0472 2.34111 60.5592-14.3112 30.2423Z" fill="#0D0F11" transform="matrix(1 0 0 -1 2196 1815.56)"/><path d="M5.1564 25.7812 5.15646 34.7783-5.15604 34.7783-5.1561 25.7813ZM-15.4686 30.9376 0 0 15.4689 30.9374ZM15.4689 29.622 0.000360892 60.5595-15.4686 29.6221Z" fill="#0D0F11" transform="matrix(1 0 0 -1 2708 1815.56)"/><path d="M2681.76 1817.65 2221 1763.15 2222.21 1752.91 2682.97 1807.41ZM2679.06 1796.56 2707.97 1815.56 2675.43 1827.29ZM2224.91 1774 2196 1755 2228.54 1743.27Z" fill="#0D0F11"/><path d="M26.2092-2.09198 486.971 52.4105 485.76 62.6516 24.9978 8.14912ZM28.9062 18.9958 0 0 32.5404-11.7275ZM483.062 41.5637 511.968 60.5595 479.428 72.287Z" fill="#0D0F11" transform="matrix(-1 0 0 1 2707.97 1755)"/><path d="M26.2818-0.669904 758.937 126.546 757.173 136.707 24.5176 9.49056ZM27.8351 20.5334 0 0 33.1278-9.948ZM755.622 115.504 783.457 136.037 750.33 145.985Z" fill="#0D0F11" transform="matrix(1 0 0 -1 1091 1594.04)"/><path d="M25.3595 6.93971 250.75 119.878 246.13 129.097 20.7397 16.1595ZM20.7297 27.6892 0 0 34.5892 0.0297849ZM250.76 108.348 271.489 136.037 236.9 136.007Z" fill="#0D0F11" transform="matrix(1 0 0 -1 1603 1594.04)"/><path d="M2170.71 1593.65 1895.54 1473.07 1899.68 1463.62 2174.85 1584.2ZM2174.27 1572.69 2196.39 1599.27 2161.85 1601.03ZM1896.13 1484.59 1874 1458 1908.55 1456.25Z" fill="#0D0F11"/><path d="M2682.08 1600.05 1898.56 1467.39 1900.28 1457.22 2683.8 1589.89ZM2680.44 1578.86 2708.36 1599.27 2675.28 1609.36ZM1901.92 1478.42 1874 1458 1907.09 1447.91Z" fill="#0D0F11"/><g clip-path="url(#clip7)" filter="url(#fx0)" transform="translate(1192 1766)"><g clip-path="url(#clip8)"><path d="M22.0001 392.279 145.461 392.279 145.461 60.1749 123.441 60.1749 156 21.875 188.559 60.1749 166.539 60.1749 166.539 392.279 290 392.279 290 532.875 22.0001 532.875Z" fill="#FF0000" fill-rule="evenodd"/></g></g><g clip-path="url(#clip9)" filter="url(#fx1)" transform="translate(1179 2132)"><g clip-path="url(#clip10)"><path d="M37.848-15.77 37.848-43.326C37.848-53.12 30.876-59.594 21.663-59.594 12.45-59.594 5.478-53.12 5.478-43.326L5.478-15.77C5.478-5.976 12.45 0.498 21.663 0.498 30.876 0.498 37.848-5.976 37.848-15.77ZM31.872-16.102C31.872-9.628 28.22-4.814 21.663-4.814 15.106-4.814 11.454-9.628 11.454-16.102L11.454-42.994C11.454-49.468 15.106-54.282 21.663-54.282 28.22-54.282 31.872-49.468 31.872-42.994ZM58.0747 0 58.0747-7.802 50.2727-7.802 50.2727 0ZM103.658-19.505C103.658-25.066 103.077-31.042 98.7615-35.358 96.4375-37.682 92.9515-39.093 88.5525-39.093 83.9045-39.093 80.2525-37.599 77.9285-35.026L77.9285-53.784 102.413-53.784 102.413-59.096 72.5335-59.096 72.5335-28.054 77.9285-28.054C79.0905-31.54 82.5765-33.864 87.7225-33.864 96.2715-33.864 97.6825-26.726 97.6825-19.505 97.6825-15.272 97.5165-10.541 94.4455-7.47 92.7025-5.727 90.0465-4.731 87.1415-4.731 80.9165-4.731 77.8455-8.051 77.0985-13.944L71.1225-13.944C71.4545-9.711 72.6995-6.308 75.2725-3.652 77.8455-1.079 81.9955 0.581 87.1415 0.581 92.3705 0.581 96.1885-1.079 98.9275-3.818 103.16-8.051 103.658-13.612 103.658-19.505ZM147.872 0 147.872-26.145C147.872-30.876 146.544-34.694 143.639-37.516 141.149-40.006 137.58-41.334 133.181-41.334 128.616-41.334 124.632-39.674 121.727-36.354L121.727-40.836 115.751-40.836 115.751 0 121.727 0 121.727-25.149C121.727-32.287 125.711-36.022 131.853-36.022 137.995-36.022 141.896-32.37 141.896-25.149L141.896 0ZM191.622-11.952C191.622-19.588 186.725-22.327 179.587-22.991L173.03-23.572C167.884-23.987 165.892-26.062 165.892-29.548 165.892-33.698 169.046-36.271 175.022-36.271 179.255-36.271 182.99-35.275 185.895-33.034L189.796-36.935C186.144-39.923 180.915-41.334 175.105-41.334 166.39-41.334 160.082-36.852 160.082-29.382 160.082-22.659 164.315-19.09 172.283-18.426L179.006-17.845C183.737-17.43 185.812-15.438 185.812-11.869 185.812-7.055 181.662-4.648 174.939-4.648 169.876-4.648 165.477-5.976 162.24-9.379L158.256-5.395C162.738-1.079 168.133 0.498 175.022 0.498 184.899 0.498 191.622-4.067 191.622-11.952Z" fill="#FFFFFF" transform="matrix(1 0 0 1 71.4075 128)"/></g></g><path d="M1214 2151.4 1337.46 2151.4 1337.46 1819.3 1315.44 1819.3 1348 1781 1380.56 1819.3 1358.54 1819.3 1358.54 2151.4 1482 2151.4 1482 2292 1214 2292Z" fill="url(#fill11)" fill-rule="evenodd"/><text fill="#FFFFFF" font-family="DIN,DIN_MSFontService,sans-serif" font-weight="400" font-size="83" transform="matrix(1 0 0 1 1250.41 2253)">0.5ns</text><g clip-path="url(#clip12)" filter="url(#fx2)" transform="translate(1742 1456)"><g clip-path="url(#clip13)"><path d="M22.0001 704.431 145.922 704.431 145.922 60.3171 123.819 60.3171 156.5 21.8749 189.181 60.3171 167.078 60.3171 167.078 704.431 291 704.431 291 846.875 22.0001 846.875Z" fill="#FF0000" fill-rule="evenodd"/></g></g><g clip-path="url(#clip14)" filter="url(#fx3)" transform="translate(1762 2136)"><g clip-path="url(#clip15)"><path d="M39.093-53.784 39.093-59.096 6.308-59.096 6.308-44.488 12.201-44.488 12.201-53.784 32.785-53.784 12.284 0 18.592 0ZM82.5597 0 82.5597-26.145C82.5597-30.876 81.2317-34.694 78.3267-37.516 75.8367-40.006 72.2677-41.334 67.8687-41.334 63.3037-41.334 59.3197-39.674 56.4147-36.354L56.4147-40.836 50.4387-40.836 50.4387 0 56.4147 0 56.4147-25.149C56.4147-32.287 60.3987-36.022 66.5407-36.022 72.6827-36.022 76.5837-32.37 76.5837-25.149L76.5837 0ZM126.31-11.952C126.31-19.588 121.413-22.327 114.275-22.991L107.718-23.572C102.572-23.987 100.58-26.062 100.58-29.548 100.58-33.698 103.734-36.271 109.71-36.271 113.943-36.271 117.678-35.275 120.583-33.034L124.484-36.935C120.832-39.923 115.603-41.334 109.793-41.334 101.078-41.334 94.77-36.852 94.77-29.382 94.77-22.659 99.003-19.09 106.971-18.426L113.694-17.845C118.425-17.43 120.5-15.438 120.5-11.869 120.5-7.055 116.35-4.648 109.627-4.648 104.564-4.648 100.165-5.976 96.928-9.379L92.944-5.395C97.426-1.079 102.821 0.498 109.71 0.498 119.587 0.498 126.31-4.067 126.31-11.952Z" fill="#FFFFFF" transform="matrix(1 0 0 1 71.6443 127)"/></g></g><path d="M1764 2153.56 1887.92 2153.56 1887.92 1509.44 1865.82 1509.44 1898.5 1471 1931.18 1509.44 1909.08 1509.44 1909.08 2153.56 2033 2153.56 2033 2296 1764 2296Z" fill="url(#fill16)" fill-rule="evenodd"/><text fill="#FFFFFF" font-family="DIN,DIN_MSFontService,sans-serif" font-weight="400" font-size="83" transform="matrix(1 0 0 1 1833.64 2256)">7ns</text><g clip-path="url(#clip17)" filter="url(#fx4)" transform="translate(2330 876)"><g clip-path="url(#clip18)"><path d="M22 150.468 163.399 150.468 163.399 64.0333 139.16 64.0333 175 21.875 210.84 64.0333 186.601 64.0333 186.601 150.468 328 150.468 328 316.875 22 316.875Z" fill="#FF0000" fill-rule="evenodd"/></g></g><g clip-path="url(#clip19)" filter="url(#fx5)" transform="translate(2325 1013)"><g clip-path="url(#clip20)"><path d="M27.39 0 27.39-59.096 21.414-59.096 10.375-49.551 10.375-42.745 21.414-52.456 21.414 0ZM80.8167-15.77 80.8167-43.326C80.8167-53.12 73.8447-59.594 64.6317-59.594 55.4187-59.594 48.4467-53.12 48.4467-43.326L48.4467-15.77C48.4467-5.976 55.4187 0.498 64.6317 0.498 73.8447 0.498 80.8167-5.976 80.8167-15.77ZM74.8407-16.102C74.8407-9.628 71.1887-4.814 64.6317-4.814 58.0747-4.814 54.4227-9.628 54.4227-16.102L54.4227-42.994C54.4227-49.468 58.0747-54.282 64.6317-54.282 71.1887-54.282 74.8407-49.468 74.8407-42.994ZM123.785-15.77 123.785-43.326C123.785-53.12 116.813-59.594 107.6-59.594 98.3875-59.594 91.4155-53.12 91.4155-43.326L91.4155-15.77C91.4155-5.976 98.3875 0.498 107.6 0.498 116.813 0.498 123.785-5.976 123.785-15.77ZM117.809-16.102C117.809-9.628 114.157-4.814 107.6-4.814 101.043-4.814 97.3915-9.628 97.3915-16.102L97.3915-42.994C97.3915-49.468 101.043-54.282 107.6-54.282 114.157-54.282 117.809-49.468 117.809-42.994ZM168.497 0 168.497-26.145C168.497-30.876 167.169-34.694 164.264-37.516 161.774-40.006 158.205-41.334 153.806-41.334 149.241-41.334 145.257-39.674 142.352-36.354L142.352-40.836 136.376-40.836 136.376 0 142.352 0 142.352-25.149C142.352-32.287 146.336-36.022 152.478-36.022 158.62-36.022 162.521-32.37 162.521-25.149L162.521 0ZM212.247-11.952C212.247-19.588 207.35-22.327 200.212-22.991L193.655-23.572C188.509-23.987 186.517-26.062 186.517-29.548 186.517-33.698 189.671-36.271 195.647-36.271 199.88-36.271 203.615-35.275 206.52-33.034L210.421-36.935C206.769-39.923 201.54-41.334 195.73-41.334 187.015-41.334 180.707-36.852 180.707-29.382 180.707-22.659 184.94-19.09 192.908-18.426L199.631-17.845C204.362-17.43 206.437-15.438 206.437-11.869 206.437-7.055 202.287-4.648 195.564-4.648 190.501-4.648 186.102-5.976 182.865-9.379L178.881-5.395C183.363-1.079 188.758 0.498 195.647 0.498 205.524 0.498 212.247-4.067 212.247-11.952Z" fill="#FFFFFF" transform="matrix(1 0 0 1 71.8452 128)"/></g></g><path d="M2352 1019.59 2493.4 1019.59 2493.4 933.158 2469.16 933.158 2505 891 2540.84 933.158 2516.6 933.158 2516.6 1019.59 2658 1019.59 2658 1186 2352 1186Z" fill="url(#fill21)" fill-rule="evenodd"/><text fill="#FFFFFF" font-family="DIN,DIN_MSFontService,sans-serif" font-weight="400" font-size="83" transform="matrix(1 0 0 1 2396.85 1134)">100ns</text></g></svg>