<svg width="3505" height="2478" xmlns="http://www.w3.org/2000/svg" xmlns:xlink="http://www.w3.org/1999/xlink" xml:space="preserve" overflow="hidden"><defs><clipPath id="clip0"><rect x="139" y="-3" width="3505" height="2478"/></clipPath></defs><g clip-path="url(#clip0)" transform="translate(-139 3)"><rect x="2766.5" y="0.499836" width="875" height="2472" stroke="#BC0A23" stroke-width="4.58333" stroke-miterlimit="8" fill="#FF1234"/><rect x="156.5" y="1016.5" width="505" height="443" stroke="#BC0A23" stroke-width="4.58333" stroke-miterlimit="8" fill="#FF1234"/><text fill="#FFFFFF" font-family="DIN,DIN_MSFontService,sans-serif" font-weight="400" font-size="83" transform="matrix(1 0 0 1 327.909 1269)">CPU</text><rect x="593.5" y="1064.5" width="323" height="98" stroke="#BC0A23" stroke-width="4.58333" stroke-miterlimit="8" fill="#FF1234"/><text fill="#FFFFFF" font-family="DIN,DIN_MSFontService,sans-serif" font-weight="400" font-size="83" transform="matrix(1 0 0 1 706.376 1144)">R0</text><rect x="593.5" y="1194.5" width="323" height="98" stroke="#BC0A23" stroke-width="4.58333" stroke-miterlimit="8" fill="#FF1234"/><text fill="#FFFFFF" font-family="DIN,DIN_MSFontService,sans-serif" font-weight="400" font-size="83" transform="matrix(1 0 0 1 706.376 1275)">R1</text><rect x="593.5" y="1318.5" width="323" height="99" stroke="#BC0A23" stroke-width="4.58333" stroke-miterlimit="8" fill="#FF1234"/><text fill="#FFFFFF" font-family="DIN,DIN_MSFontService,sans-serif" font-weight="400" font-size="83" transform="matrix(1 0 0 1 706.376 1399)">R2</text><rect x="1404.5" y="568.5" width="874" height="92.9998" stroke="#BC0A23" stroke-width="4.58333" stroke-miterlimit="8" fill="#FFFFFF"/><rect x="1404.5" y="661.5" width="874" height="93.0002" stroke="#BC0A23" stroke-width="4.58333" stroke-miterlimit="8" fill="#FFFFFF"/><rect x="1404.5" y="755.5" width="874" height="91.9998" stroke="#BC0A23" stroke-width="4.58333" stroke-miterlimit="8" fill="#FFFFFF"/><rect x="1404.5" y="847.5" width="874" height="93.0002" stroke="#BC0A23" stroke-width="4.58333" stroke-miterlimit="8" fill="#FFFFFF"/><rect x="1404.5" y="940.5" width="874" height="93.0001" stroke="#BC0A23" stroke-width="4.58333" stroke-miterlimit="8" fill="#FFFFFF"/><rect x="1404.5" y="1033.5" width="874" height="91.9998" stroke="#BC0A23" stroke-width="4.58333" stroke-miterlimit="8" fill="#FFFFFF"/><rect x="1404.5" y="1123.5" width="874" height="92.0001" stroke="#BC0A23" stroke-width="4.58333" stroke-miterlimit="8" fill="#FFFFFF"/><rect x="1404.5" y="1215.5" width="874" height="92.0001" stroke="#BC0A23" stroke-width="4.58333" stroke-miterlimit="8" fill="#FFFFFF"/><rect x="1404.5" y="1305.5" width="874" height="91.9998" stroke="#BC0A23" stroke-width="4.58333" stroke-miterlimit="8" fill="#FFFFFF"/><rect x="1404.5" y="1397.5" width="874" height="93.0001" stroke="#BC0A23" stroke-width="4.58333" stroke-miterlimit="8" fill="#FFFFFF"/><rect x="1404.5" y="1487.5" width="874" height="93.0001" stroke="#BC0A23" stroke-width="4.58333" stroke-miterlimit="8" fill="#FFFFFF"/><rect x="1404.5" y="1580.5" width="874" height="91.9998" stroke="#BC0A23" stroke-width="4.58333" stroke-miterlimit="8" fill="#FFFFFF"/><rect x="1404.5" y="1669.5" width="874" height="92.9998" stroke="#BC0A23" stroke-width="4.58333" stroke-miterlimit="8" fill="#FFFFFF"/><rect x="1404.5" y="1762.5" width="874" height="92.0001" stroke="#BC0A23" stroke-width="4.58333" stroke-miterlimit="8" fill="#FFFFFF"/><rect x="1404.5" y="1852.5" width="874" height="92.0001" stroke="#BC0A23" stroke-width="4.58333" stroke-miterlimit="8" fill="#FFFFFF"/><rect x="1404.5" y="1944.5" width="874" height="92.9998" stroke="#BC0A23" stroke-width="4.58333" stroke-miterlimit="8" fill="#FFFFFF"/><rect x="2940.5" y="568.5" width="130" height="92.9998" stroke="#BC0A23" stroke-width="4.58333" stroke-miterlimit="8" fill="#00B0F0"/><rect x="2766.5" y="568.5" width="875" height="92.9998" stroke="#000000" stroke-width="4.58333" stroke-miterlimit="8" fill="none"/><text font-family="DIN,DIN_MSFontService,sans-serif" font-weight="400" font-size="83" transform="matrix(1 0 0 1 1437.26 545)">Cache<tspan font-size="83" x="795.744" y="-441">RAM Memory</tspan><tspan font-size="83" x="-1248.62" y="418">CPU with registers</tspan></text></g></svg>