<svg width="2336" height="1548" xmlns="http://www.w3.org/2000/svg" xmlns:xlink="http://www.w3.org/1999/xlink" xml:space="preserve" overflow="hidden"><defs><clipPath id="clip0"><rect x="1189" y="608" width="2336" height="1548"/></clipPath><linearGradient x1="1955" y1="833" x2="1955" y2="949" gradientUnits="userSpaceOnUse" spreadMethod="reflect" id="fill1"><stop offset="0" stop-color="#9B9B9B"/><stop offset="0.5" stop-color="#8E8E8E"/><stop offset="1" stop-color="#797979"/></linearGradient><linearGradient x1="1953.5" y1="1510" x2="1953.5" y2="1626" gradientUnits="userSpaceOnUse" spreadMethod="reflect" id="fill2"><stop offset="0" stop-color="#9B9B9B"/><stop offset="0.5" stop-color="#8E8E8E"/><stop offset="1" stop-color="#797979"/></linearGradient><linearGradient x1="3095.5" y1="837" x2="3095.5" y2="947" gradientUnits="userSpaceOnUse" spreadMethod="reflect" id="fill3"><stop offset="0" stop-color="#9B9B9B"/><stop offset="0.5" stop-color="#8E8E8E"/><stop offset="1" stop-color="#797979"/></linearGradient><linearGradient x1="3434.5" y1="719" x2="3434.5" y2="835" gradientUnits="userSpaceOnUse" spreadMethod="reflect" id="fill4"><stop offset="0" stop-color="#9B9B9B"/><stop offset="0.5" stop-color="#8E8E8E"/><stop offset="1" stop-color="#797979"/></linearGradient><linearGradient x1="3095.5" y1="1300" x2="3095.5" y2="1410" gradientUnits="userSpaceOnUse" spreadMethod="reflect" id="fill5"><stop offset="0" stop-color="#9B9B9B"/><stop offset="0.5" stop-color="#8E8E8E"/><stop offset="1" stop-color="#797979"/></linearGradient><linearGradient x1="3434.5" y1="1182" x2="3434.5" y2="1298" gradientUnits="userSpaceOnUse" spreadMethod="reflect" id="fill6"><stop offset="0" stop-color="#9B9B9B"/><stop offset="0.5" stop-color="#8E8E8E"/><stop offset="1" stop-color="#797979"/></linearGradient><linearGradient x1="3266.5" y1="1534" x2="3266.5" y2="1644" gradientUnits="userSpaceOnUse" spreadMethod="reflect" id="fill7"><stop offset="0" stop-color="#9B9B9B"/><stop offset="0.5" stop-color="#8E8E8E"/><stop offset="1" stop-color="#797979"/></linearGradient><linearGradient x1="2927.5" y1="1534" x2="2927.5" y2="1644" gradientUnits="userSpaceOnUse" spreadMethod="reflect" id="fill8"><stop offset="0" stop-color="#9B9B9B"/><stop offset="0.5" stop-color="#8E8E8E"/><stop offset="1" stop-color="#797979"/></linearGradient><linearGradient x1="3182.5" y1="1998" x2="3182.5" y2="2114" gradientUnits="userSpaceOnUse" spreadMethod="reflect" id="fill9"><stop offset="0" stop-color="#9B9B9B"/><stop offset="0.5" stop-color="#8E8E8E"/><stop offset="1" stop-color="#797979"/></linearGradient></defs><g clip-path="url(#clip0)" transform="translate(-1189 -608)"><rect x="1616.5" y="717.5" width="678" height="116" stroke="#000000" stroke-width="4.58333" stroke-miterlimit="8" fill="#FFFFFF"/><rect x="1616" y="833" width="678" height="116" stroke="#000000" stroke-width="2.29167" stroke-miterlimit="8" fill="url(#fill1)"/><text font-family="DIN,DIN_MSFontService,sans-serif" font-weight="400" font-size="83" transform="matrix(1 0 0 1 1719.38 923)">alignedValue</text><rect x="1616.5" y="947.5" width="678" height="116" stroke="#000000" stroke-width="4.58333" stroke-miterlimit="8" fill="#FFFFFF"/><text font-family="DIN,DIN_MSFontService,sans-serif" font-weight="400" font-size="64" transform="matrix(1 0 0 1 1228.08 801)">0x6A341170<tspan font-size="64" x="-0.000366211" y="111">0x6A341174</tspan><tspan font-size="64" x="-0.000732422" y="229">0x6A341178</tspan></text><rect x="1615.5" y="1383.5" width="677" height="281" stroke="#000000" stroke-width="4.58333" stroke-miterlimit="8" fill="#FFFFFF"/><text font-family="DIN,DIN_MSFontService,sans-serif" font-weight="400" font-size="83" transform="matrix(1 0 0 1 1647.67 1480)">CPU</text><rect x="1615" y="1510" width="677" height="116" stroke="#000000" stroke-width="2.29167" stroke-miterlimit="8" fill="url(#fill2)"/><text font-family="DIN,DIN_MSFontService,sans-serif" font-weight="400" font-size="83" transform="matrix(1 0 0 1 1808.21 1600)">register</text><path d="M2126.87 947.03 2126.18 973.434 2124.18 999.677 2120.98 1025.48 2116.6 1050.66 2111.15 1075.03 2104.76 1098.39 2097.56 1120.5 2093.6 1131.04 2089.47 1141.14 2085.2 1150.86 2080.69 1160.14 2076.1 1168.99 2071.33 1177.34 2066.43 1185.19 2061.4 1192.42 2056.3 1199.16 2051.01 1205.33 2045.71 1210.83 2040.27 1215.69 2034.75 1219.94 2029.16 1223.44 2023.55 1226.18 2017.85 1228.23 2012.14 1229.45 2006.44 1229.89 2000.81 1230.33 2000.96 1230.31 1995.4 1231.5 1995.55 1231.45 1989.99 1233.45 1990.1 1233.4 1984.6 1236.09 1984.71 1236.03 1979.21 1239.47 1979.3 1239.41 1973.86 1243.6 1973.93 1243.54 1968.55 1248.35 1968.61 1248.3 1963.36 1253.73 1963.41 1253.68 1958.16 1259.81 1958.2 1259.75 1953.14 1266.44 1953.16 1266.4 1948.16 1273.59 1948.2 1273.54 1943.32 1281.36 1943.34 1281.32 1938.59 1289.63 1938.62 1289.59 1934.05 1298.4 1934.07 1298.38 1929.57 1307.63 1929.59 1307.59 1925.34 1317.27 1925.35 1317.25 1921.22 1327.31 1921.23 1327.28 1917.3 1337.78 1917.31 1337.73 1910.13 1359.79 1910.14 1359.74 1903.77 1383.05 1903.78 1383 1898.34 1407.31 1898.35 1407.26 1894.04 1432.38 1894.05 1432.33 1890.8 1458.08 1890.8 1458.02 1888.77 1487.63 1886.48 1487.47 1888.52 1457.83 1891.78 1432.02 1896.1 1406.84 1901.55 1382.47 1907.94 1359.11 1915.14 1337 1919.09 1326.46 1923.23 1316.36 1927.5 1306.64 1932.01 1297.36 1936.59 1288.51 1941.36 1280.16 1946.27 1272.31 1951.3 1265.08 1956.39 1258.34 1961.69 1252.17 1966.99 1246.67 1972.43 1241.81 1977.94 1237.56 1983.54 1234.06 1989.15 1231.32 1994.85 1229.27 2000.56 1228.05 2006.26 1227.61 2011.88 1227.17 2011.73 1227.19 2017.3 1226 2017.15 1226.05 2022.71 1224.05 2022.6 1224.1 2028.1 1221.41 2027.99 1221.47 2033.49 1218.03 2033.4 1218.09 2038.84 1213.9 2038.77 1213.96 2044.15 1209.15 2044.09 1209.2 2049.34 1203.77 2049.29 1203.82 2054.54 1197.69 2054.5 1197.75 2059.56 1191.06 2059.53 1191.1 2064.53 1183.91 2064.5 1183.96 2069.38 1176.14 2069.35 1176.18 2074.1 1167.87 2074.08 1167.91 2078.64 1159.1 2078.63 1159.12 2083.13 1149.87 2083.11 1149.91 2087.36 1140.23 2087.35 1140.25 2091.48 1130.19 2091.46 1130.22 2095.4 1119.72 2095.38 1119.77 2102.57 1097.71 2102.56 1097.76 2108.93 1074.45 2108.92 1074.5 2114.36 1050.19 2114.34 1050.24 2118.72 1025.12 2118.71 1025.17 2121.9 999.422 2121.89 999.475 2123.89 973.288 2123.89 973.345 2124.58 946.97ZM1901.49 1483.34 1887 1510.46 1874 1482.59Z" fill="#FF1234"/><rect x="2842.5" y="719.5" width="678" height="115" stroke="#000000" stroke-width="4.58333" stroke-miterlimit="8" fill="#FFFFFF"/><rect x="2842" y="837" width="507" height="110" stroke="#000000" stroke-width="2.29167" stroke-miterlimit="8" fill="url(#fill3)"/><text font-family="DIN,DIN_MSFontService,sans-serif" font-weight="400" font-size="64" transform="matrix(1 0 0 1 2899 916)">-<tspan font-size="64" x="27.5" y="0">alignedValue</tspan><tspan font-size="64" x="-444.831" y="-114">0x6A341170</tspan><tspan font-size="64" x="-444.831" y="-3">0x6A341174</tspan><tspan font-size="64" x="-444.832" y="115">0x6A341178</tspan></text><rect x="3349.5" y="836.5" width="171" height="116" stroke="#000000" stroke-width="4.58333" stroke-miterlimit="8" fill="#FFFFFF"/><rect x="2842.5" y="948.5" width="678" height="116" stroke="#000000" stroke-width="4.58333" stroke-miterlimit="8" fill="#FFFFFF"/><rect x="3349" y="719" width="171" height="116" stroke="#000000" stroke-width="2.29167" stroke-miterlimit="8" fill="url(#fill4)"/><text font-family="DIN,DIN_MSFontService,sans-serif" font-weight="400" font-size="64" transform="matrix(1 0 0 1 3384.73 802)">un<tspan font-size="64" x="72.1875" y="0">-</tspan></text><rect x="2842.5" y="1182.5" width="678" height="116" stroke="#000000" stroke-width="4.58333" stroke-miterlimit="8" fill="#FFFFFF"/><rect x="2842" y="1300" width="507" height="110" stroke="#000000" stroke-width="2.29167" stroke-miterlimit="8" fill="url(#fill5)"/><text font-family="DIN,DIN_MSFontService,sans-serif" font-weight="400" font-size="64" transform="matrix(1 0 0 1 2899 1379)">-<tspan font-size="64" x="27.5" y="0">alignedValue</tspan></text><rect x="3349.5" y="1299.5" width="171" height="111" stroke="#000000" stroke-width="4.58333" stroke-miterlimit="8" fill="#FFFFFF"/><rect x="3349" y="1182" width="171" height="116" stroke="#000000" stroke-width="2.29167" stroke-miterlimit="8" fill="url(#fill6)"/><text font-family="DIN,DIN_MSFontService,sans-serif" font-weight="400" font-size="64" transform="matrix(1 0 0 1 3384.73 1265)">un<tspan font-size="64" x="72.1875" y="0">-</tspan></text><path d="M3349.5 1350.25 3503 1350.25 3503 1341.5 3520.5 1359 3503 1376.5 3503 1367.75 3349.5 1367.75Z" stroke="#BC0A23" stroke-width="4.58333" stroke-miterlimit="8" fill="#FF1234" fill-rule="evenodd"/><path d="M3344.5 1251 2861.5 1251 2861.5 1260.5 2842.5 1241.5 2861.5 1222.5 2861.5 1232 3344.5 1232Z" stroke="#BC0A23" stroke-width="4.58333" stroke-miterlimit="8" fill="#FF1234" fill-rule="evenodd"/><rect x="3013" y="1534" width="507" height="110" stroke="#000000" stroke-width="2.29167" stroke-miterlimit="8" fill="url(#fill7)"/><text font-family="DIN,DIN_MSFontService,sans-serif" font-weight="400" font-size="64" transform="matrix(1 0 0 1 3069.85 1614)">-<tspan font-size="64" x="27.5" y="0">alignedValue</tspan></text><rect x="2842" y="1534" width="171" height="110" stroke="#000000" stroke-width="2.29167" stroke-miterlimit="8" fill="url(#fill8)"/><text font-family="DIN,DIN_MSFontService,sans-serif" font-weight="400" font-size="64" transform="matrix(1 0 0 1 2878.03 1614)">un<tspan font-size="64" x="72.1875" y="0">-</tspan></text><rect x="2845.5" y="1862.5" width="675" height="282" stroke="#000000" stroke-width="4.58333" stroke-miterlimit="8" fill="#FFFFFF"/><text font-family="DIN,DIN_MSFontService,sans-serif" font-weight="400" font-size="83" transform="matrix(1 0 0 1 2878.37 1960)">CPU</text><rect x="2845" y="1998" width="675" height="116" stroke="#000000" stroke-width="2.29167" stroke-miterlimit="8" fill="url(#fill9)"/><text font-family="DIN,DIN_MSFontService,sans-serif" font-weight="400" font-size="83" transform="matrix(1 0 0 1 3037.45 2088)">register</text><path d="M3450.61 836.044 3449.99 852.456 3448.29 868.784 3445.47 884.861 3441.64 900.494 3436.93 915.686 3431.4 930.194 3425.05 943.954 3418.02 956.774 3410.41 968.597 3402.22 979.3 3393.59 988.684 3389.1 992.857 3384.55 996.714 3379.87 1000.13 3375.12 1003.17 3370.35 1005.78 3365.52 1007.94 3360.61 1009.66 3355.64 1010.94 3350.71 1011.7 3345.78 1011.96 3340.9 1012.21 3341.02 1012.19 3336.21 1012.94 3336.32 1012.92 3331.44 1014.17 3331.54 1014.14 3326.72 1015.83 3326.81 1015.8 3322.06 1017.92 3322.14 1017.88 3317.46 1020.44 3317.52 1020.4 3312.84 1023.4 3312.89 1023.36 3308.27 1026.74 3308.33 1026.69 3303.83 1030.5 3303.87 1030.46 3299.44 1034.59 3299.5 1034.53 3290.94 1043.84 3291 1043.76 3282.88 1054.38 3282.93 1054.31 3275.37 1066.06 3275.41 1065.99 3268.41 1078.8 3268.45 1078.73 3262.13 1092.42 3262.16 1092.35 3256.66 1106.78 3256.69 1106.72 3252 1121.78 3252.02 1121.71 3248.21 1137.33 3248.22 1137.26 3245.41 1153.2 3245.42 1153.1 3244.59 1162.85 3242.31 1162.66 3243.14 1152.85 3245.97 1136.83 3249.8 1121.13 3254.51 1106 3260.04 1091.49 3266.38 1077.73 3273.42 1064.85 3281.03 1053.03 3289.22 1042.33 3297.84 1032.94 3302.33 1028.77 3306.88 1024.91 3311.57 1021.49 3316.32 1018.45 3321.08 1015.85 3325.92 1013.68 3330.82 1011.96 3335.8 1010.69 3340.73 1009.92 3345.66 1009.67 3350.54 1009.42 3350.42 1009.43 3355.23 1008.68 3355.12 1008.7 3360 1007.45 3359.9 1007.48 3364.71 1005.79 3364.63 1005.83 3369.38 1003.7 3369.29 1003.74 3373.98 1001.18 3373.91 1001.22 3378.6 998.222 3378.54 998.262 3383.17 994.887 3383.1 994.938 3387.6 991.126 3387.56 991.161 3392 987.036 3391.94 987.099 3400.5 977.787 3400.43 977.866 3408.56 967.241 3408.51 967.317 3416.07 955.567 3416.03 955.636 3423.03 942.886 3422.99 942.958 3429.3 929.27 3429.27 929.342 3434.77 914.905 3434.75 914.973 3439.44 899.848 3439.42 899.915 3443.23 884.352 3443.22 884.427 3446.03 868.427 3446.02 868.507 3447.7 852.257 3447.7 852.331 3448.32 835.956ZM3257.47 1159.05 3242 1185.63 3230.02 1157.31Z" fill="#FF1234"/><path d="M3268 951.035 3267.5 967.381 3266.05 983.633 3263.73 999.633 3260.59 1015.25 3256.77 1030.38 3252.18 1044.81 3246.97 1058.56 3241.19 1071.38 3234.9 1083.14 3228.17 1093.78 3221.05 1103.17 3217.31 1107.35 3213.58 1111.14 3209.71 1114.57 3205.83 1117.62 3201.88 1120.23 3197.85 1122.41 3193.81 1124.14 3189.69 1125.43 3185.56 1126.2 3181.48 1126.46 3177.48 1126.71 3177.62 1126.69 3173.62 1127.44 3173.76 1127.41 3169.76 1128.66 3169.86 1128.62 3165.93 1130.3 3166.02 1130.26 3162.08 1132.38 3162.17 1132.33 3158.3 1134.89 3158.36 1134.84 3154.49 1137.84 3154.55 1137.79 3150.8 1141.16 3150.85 1141.12 3147.1 1144.87 3147.15 1144.82 3143.52 1148.94 3143.58 1148.88 3136.51 1158.19 3136.57 1158.11 3129.88 1168.68 3129.92 1168.6 3123.67 1180.29 3123.71 1180.22 3117.96 1192.97 3117.98 1192.91 3112.8 1206.53 3112.82 1206.47 3108.26 1220.91 3108.27 1220.85 3104.4 1235.85 3104.41 1235.78 3101.35 1251.35 3101.36 1251.29 3099.05 1267.23 3099.06 1267.14 3098.36 1276.76 3096.08 1276.6 3096.77 1266.94 3099.1 1250.93 3102.17 1235.31 3106.06 1220.25 3110.64 1205.75 3115.85 1192.06 3121.63 1179.24 3127.92 1167.49 3134.66 1156.85 3141.78 1147.46 3145.45 1143.28 3149.25 1139.48 3153.05 1136.06 3157 1133.01 3160.95 1130.39 3164.98 1128.22 3169.02 1126.49 3173.14 1125.2 3177.27 1124.42 3181.34 1124.17 3185.34 1123.92 3185.2 1123.94 3189.2 1123.19 3189.07 1123.22 3193.07 1121.97 3192.96 1122.01 3196.9 1120.32 3196.81 1120.37 3200.74 1118.24 3200.66 1118.29 3204.53 1115.73 3204.45 1115.79 3208.27 1112.79 3208.22 1112.83 3212.03 1109.45 3211.97 1109.51 3215.66 1105.76 3215.62 1105.8 3219.31 1101.67 3219.25 1101.75 3226.31 1092.43 3226.26 1092.51 3232.95 1081.95 3232.9 1082.02 3239.15 1070.33 3239.12 1070.4 3244.87 1057.65 3244.84 1057.72 3250.03 1044.03 3250.01 1044.09 3254.57 1029.72 3254.55 1029.78 3258.36 1014.72 3258.35 1014.77 3261.48 999.212 3261.47 999.273 3263.78 983.335 3263.77 983.399 3265.21 967.211 3265.21 967.277 3265.71 950.965ZM3111.2 1272.83 3096 1299.56 3083.74 1271.37Z" fill="#FF1234"/><path d="M3268.06 1410.05 3267.81 1415.91 3267.11 1421.74 3266.03 1427.5 3264.5 1433.17 3260.39 1443.8 3255.07 1453.3 3252.01 1457.58 3248.75 1461.47 3245.23 1464.86 3241.64 1467.75 3237.82 1470.08 3233.92 1471.83 3229.93 1472.88 3226.03 1473.27 3222.21 1473.64 3222.39 1473.61 3218.58 1474.61 3218.76 1474.55 3215.01 1476.23 3215.14 1476.16 3211.52 1478.41 3211.62 1478.34 3208.06 1481.15 3208.15 1481.07 3204.78 1484.38 3204.85 1484.3 3201.67 1488.11 3201.72 1488.04 3198.72 1492.23 3198.79 1492.12 3193.54 1501.5 3193.63 1501.27 3190.35 1512.07 3188.16 1511.4 3191.48 1500.49 3196.82 1490.95 3199.88 1486.67 3203.13 1482.78 3206.59 1479.39 3210.25 1476.5 3214 1474.17 3217.91 1472.42 3221.9 1471.37 3225.8 1470.98 3229.61 1470.61 3229.44 1470.64 3233.25 1469.64 3233.07 1469.71 3236.82 1468.02 3236.69 1468.08 3240.38 1465.83 3240.26 1465.92 3243.76 1463.11 3243.68 1463.18 3247.12 1459.86 3247.03 1459.95 3250.22 1456.14 3250.17 1456.21 3253.17 1452.02 3253.1 1452.13 3258.35 1442.75 3258.28 1442.9 3262.34 1432.4 3262.31 1432.51 3263.81 1426.95 3263.79 1427.04 3264.85 1421.35 3264.84 1421.43 3265.53 1415.68 3265.52 1415.76 3265.77 1409.95ZM3203.62 1509.78 3185 1534.25 3176.59 1504.68Z" fill="#FF1234"/><path d="M3400.34 1647.04 3399.72 1663.52 3397.9 1679.92 3394.94 1696.12 3390.99 1711.82 3386.09 1727.07 3380.31 1741.65 3373.72 1755.47 3366.36 1768.41 3358.44 1780.3 3349.94 1791 3340.94 1800.45 3336.26 1804.68 3331.45 1808.54 3326.64 1811.96 3321.7 1815 3316.7 1817.6 3311.68 1819.82 3306.58 1821.54 3301.42 1822.81 3296.25 1823.58 3291.13 1823.83 3286.07 1824.08 3286.18 1824.07 3281.12 1824.82 3281.22 1824.8 3276.16 1826.05 3276.25 1826.02 3271.25 1827.71 3271.35 1827.67 3266.41 1829.86 3266.48 1829.83 3261.54 1832.39 3261.61 1832.35 3256.74 1835.35 3256.8 1835.31 3252.05 1838.68 3252.1 1838.64 3247.35 1842.46 3247.41 1842.41 3242.78 1846.6 3242.84 1846.54 3233.97 1855.91 3234.03 1855.84 3225.53 1866.47 3225.59 1866.39 3217.72 1878.2 3217.76 1878.13 3210.45 1891 3210.48 1890.93 3203.92 1904.68 3203.95 1904.61 3198.2 1919.11 3198.23 1919.04 3193.35 1934.23 3193.37 1934.15 3189.44 1949.78 3189.45 1949.71 3186.51 1965.83 3186.53 1965.73 3185.64 1975.55 3183.36 1975.35 3184.25 1965.47 3187.2 1949.26 3191.16 1933.56 3196.06 1918.3 3201.84 1903.73 3208.43 1889.91 3215.79 1876.96 3223.71 1865.07 3232.27 1854.37 3241.21 1844.93 3245.89 1840.69 3250.7 1836.84 3255.5 1833.42 3260.45 1830.38 3265.45 1827.78 3270.47 1825.56 3275.57 1823.84 3280.73 1822.56 3285.9 1821.8 3291.02 1821.54 3296.08 1821.29 3295.97 1821.3 3301.03 1820.55 3300.92 1820.57 3305.99 1819.32 3305.9 1819.35 3310.9 1817.66 3310.8 1817.7 3315.74 1815.51 3315.67 1815.55 3320.61 1812.98 3320.54 1813.02 3325.41 1810.02 3325.35 1810.07 3330.1 1806.69 3330.04 1806.73 3334.79 1802.92 3334.74 1802.96 3339.37 1798.78 3339.31 1798.83 3348.25 1789.46 3348.18 1789.54 3356.61 1778.91 3356.56 1778.99 3364.43 1767.18 3364.39 1767.25 3371.7 1754.37 3371.67 1754.44 3378.23 1740.69 3378.2 1740.77 3383.95 1726.27 3383.92 1726.34 3388.8 1711.15 3388.78 1711.22 3392.71 1695.59 3392.7 1695.67 3395.63 1679.54 3395.62 1679.62 3397.44 1663.31 3397.43 1663.39 3398.05 1646.96ZM3198.52 1971.78 3183 1998.32 3171.08 1969.97Z" fill="#FF1234"/><text font-family="DIN,DIN_MSFontService,sans-serif" font-weight="400" font-size="64" transform="matrix(1 0 0 1 1647.67 691)">RAM<tspan font-size="64" x="1230.7" y="0">RAM</tspan></text></g></svg>