<svg width="3490" height="2477" xmlns="http://www.w3.org/2000/svg" xmlns:xlink="http://www.w3.org/1999/xlink" xml:space="preserve" overflow="hidden"><defs><clipPath id="clip0"><rect x="154" y="-2" width="3490" height="2477"/></clipPath></defs><g clip-path="url(#clip0)" transform="translate(-154 2)"><rect x="2766.5" y="0.499836" width="875" height="2472" stroke="#BC0A23" stroke-width="4.58333" stroke-miterlimit="8" fill="#FF1234"/><rect x="156.5" y="1016.5" width="505" height="443" stroke="#BC0A23" stroke-width="4.58333" stroke-miterlimit="8" fill="#FF1234"/><text fill="#FFFFFF" font-family="DIN,DIN_MSFontService,sans-serif" font-weight="400" font-size="83" transform="matrix(1 0 0 1 327.909 1269)">CPU</text><rect x="593.5" y="1064.5" width="323" height="98" stroke="#BC0A23" stroke-width="4.58333" stroke-miterlimit="8" fill="#FF1234"/><text fill="#FFFFFF" font-family="DIN,DIN_MSFontService,sans-serif" font-weight="400" font-size="83" transform="matrix(1 0 0 1 706.376 1144)">R0</text><rect x="593.5" y="1194.5" width="323" height="98" stroke="#BC0A23" stroke-width="4.58333" stroke-miterlimit="8" fill="#FF1234"/><text fill="#FFFFFF" font-family="DIN,DIN_MSFontService,sans-serif" font-weight="400" font-size="83" transform="matrix(1 0 0 1 706.376 1275)">R1</text><rect x="593.5" y="1318.5" width="323" height="99" stroke="#BC0A23" stroke-width="4.58333" stroke-miterlimit="8" fill="#FF1234"/><text fill="#FFFFFF" font-family="DIN,DIN_MSFontService,sans-serif" font-weight="400" font-size="83" transform="matrix(1 0 0 1 706.376 1399)">R2</text><rect x="1404.5" y="661.5" width="874" height="93.0002" stroke="#BC0A23" stroke-width="4.58333" stroke-miterlimit="8" fill="#778797"/><rect x="1404.5" y="755.5" width="874" height="91.9998" stroke="#BC0A23" stroke-width="4.58333" stroke-miterlimit="8" fill="#778797"/><rect x="1404.5" y="847.5" width="874" height="93.0002" stroke="#BC0A23" stroke-width="4.58333" stroke-miterlimit="8" fill="#FFFFFF"/><rect x="1404.5" y="940.5" width="874" height="93.0001" stroke="#BC0A23" stroke-width="4.58333" stroke-miterlimit="8" fill="#FFFFFF"/><rect x="1404.5" y="1033.5" width="874" height="91.9998" stroke="#BC0A23" stroke-width="4.58333" stroke-miterlimit="8" fill="#778797"/><rect x="1404.5" y="1123.5" width="874" height="92.0001" stroke="#BC0A23" stroke-width="4.58333" stroke-miterlimit="8" fill="#FFFFFF"/><rect x="1404.5" y="1305.5" width="874" height="91.9998" stroke="#BC0A23" stroke-width="4.58333" stroke-miterlimit="8" fill="#778797"/><rect x="1404.5" y="1487.5" width="874" height="93.0001" stroke="#BC0A23" stroke-width="4.58333" stroke-miterlimit="8" fill="#FFFFFF"/><rect x="1404.5" y="1580.5" width="874" height="91.9998" stroke="#BC0A23" stroke-width="4.58333" stroke-miterlimit="8" fill="#FFFFFF"/><rect x="1404.5" y="1669.5" width="874" height="92.9998" stroke="#BC0A23" stroke-width="4.58333" stroke-miterlimit="8" fill="#FFFFFF"/><rect x="1404.5" y="1762.5" width="874" height="92.0001" stroke="#BC0A23" stroke-width="4.58333" stroke-miterlimit="8" fill="#FFFFFF"/><rect x="1404.5" y="1852.5" width="874" height="92.0001" stroke="#BC0A23" stroke-width="4.58333" stroke-miterlimit="8" fill="#FFFFFF"/><rect x="1404.5" y="1944.5" width="874" height="92.9998" stroke="#BC0A23" stroke-width="4.58333" stroke-miterlimit="8" fill="#FFFFFF"/><rect x="2940.5" y="568.5" width="130" height="92.9998" stroke="#BC0A23" stroke-width="4.58333" stroke-miterlimit="8" fill="#00B0F0"/><rect x="1569.5" y="754.5" width="130" height="92.0001" stroke="#BC0A23" stroke-width="4.58333" stroke-miterlimit="8" fill="#00B0F0"/><rect x="3366.5" y="1122.5" width="129" height="92.0001" stroke="#BC0A23" stroke-width="4.58333" stroke-miterlimit="8" fill="#00B050"/><rect x="1995.5" y="1033.5" width="130" height="91.9998" stroke="#BC0A23" stroke-width="4.58333" stroke-miterlimit="8" fill="#00B050"/><path d="M1.5398-3.07334 19.9798 6.16549 16.9002 12.3122-1.5398 3.07334ZM26.1265 9.2451 44.5665 18.4839 41.4869 24.6306 23.0469 15.3918ZM50.7132 21.5635 69.1532 30.8024 66.0736 36.949 47.6336 27.7102ZM75.2999 33.882 93.7399 43.1208 90.6603 49.2675 72.2203 40.0286ZM99.8866 46.2004 118.327 55.4392 115.247 61.5859 96.807 52.3471ZM124.473 58.5188 142.913 67.7577 139.834 73.9044 121.394 64.6655ZM149.06 70.8373 167.5 80.0761 164.42 86.2228 145.98 76.984ZM173.647 83.1557 192.087 92.3945 189.007 98.5412 170.567 89.3024ZM198.233 95.4742 216.673 104.713 213.594 110.86 195.154 101.621ZM222.82 107.793 241.26 117.031 238.181 123.178 219.741 113.939ZM247.407 120.111 265.847 129.35 262.767 135.497 244.327 126.258ZM271.994 132.429 290.434 141.668 287.354 147.815 268.914 138.576ZM296.58 144.748 315.02 153.987 311.941 160.133 293.501 150.895ZM321.167 157.066 339.607 166.305 336.527 172.452 318.087 163.213ZM345.754 169.385 364.194 178.624 361.114 184.77 342.674 175.531ZM370.34 181.703 388.78 190.942 385.701 197.089 367.261 187.85ZM394.927 194.022 413.367 203.26 410.287 209.407 391.847 200.168ZM419.514 206.34 437.954 215.579 434.874 221.726 416.434 212.487ZM444.1 218.658 462.54 227.897 459.461 234.044 441.021 224.805ZM468.687 230.977 487.127 240.216 484.048 246.362 465.608 237.124ZM493.274 243.295 511.714 252.534 508.634 258.681 490.194 249.442ZM517.86 255.614 536.301 264.853 533.221 270.999 514.781 261.76ZM542.447 267.932 560.887 277.171 557.808 283.318 539.368 274.079ZM567.034 280.251 585.474 289.489 582.394 295.636 563.954 286.397ZM591.621 292.569 610.061 301.808 606.981 307.955 588.541 298.716ZM616.207 304.888 634.647 314.126 631.568 320.273 613.128 311.034ZM640.794 317.206 659.234 326.445 656.154 332.591 637.714 323.353ZM665.381 329.524 683.821 338.763 680.741 344.91 662.301 335.671ZM689.967 341.843 708.407 351.082 705.328 357.228 686.888 347.989ZM714.554 354.161 732.994 363.4 729.914 369.547 711.474 360.308ZM739.141 366.48 757.581 375.719 754.501 381.865 736.061 372.626ZM763.727 378.798 782.168 388.037 779.088 394.184 760.648 384.945ZM788.314 391.117 806.754 400.355 803.675 406.502 785.235 397.263ZM812.901 403.435 831.341 412.674 828.261 418.821 809.821 409.582ZM837.488 415.754 855.928 424.992 852.848 431.139 834.408 421.9ZM862.075 428.072 880.515 437.311 877.435 443.458 858.995 434.219ZM886.661 440.39 905.101 449.629 902.022 455.776 883.582 446.537ZM911.248 452.709 929.688 461.948 926.608 468.094 908.168 458.856ZM935.835 465.027 954.275 474.266 951.195 480.413 932.755 471.174ZM960.421 477.346 978.861 486.585 975.782 492.731 957.342 483.492ZM985.008 489.664 1003.45 498.903 1000.37 505.05 981.928 495.811ZM1009.59 501.983 1028.03 511.221 1024.96 517.368 1006.52 508.129ZM1034.18 514.301 1052.62 523.54 1049.54 529.687 1031.1 520.448ZM1057.75 514.573 1076.17 539.185 1045.43 539.16Z" transform="matrix(-1 0 0 1 1992.67 704.5)"/><rect x="2949.5" y="1574.5" width="130" height="93.0001" stroke="#BC0A23" stroke-width="4.58333" stroke-miterlimit="8" fill="#00B0F0"/><rect x="3357.5" y="131.5" width="130" height="91.9998" stroke="#BC0A23" stroke-width="4.58333" stroke-miterlimit="8" fill="#00B050"/><path d="M2938.94 1629.54 2919.89 1621.63 2922.53 1615.28 2941.57 1623.19ZM2913.54 1618.99 2894.49 1611.08 2897.13 1604.73 2916.18 1612.64ZM2888.14 1608.45 2869.1 1600.53 2871.73 1594.18 2890.78 1602.1ZM2862.75 1597.9 2843.7 1589.98 2846.34 1583.64 2865.38 1591.55ZM2837.35 1587.35 2818.3 1579.44 2820.94 1573.09 2839.99 1581ZM2811.96 1576.8 2792.91 1568.89 2795.54 1562.54 2814.59 1570.45ZM2786.56 1566.25 2767.51 1558.34 2770.15 1551.99 2789.2 1559.9ZM2761.16 1555.7 2742.11 1547.79 2744.75 1541.44 2763.8 1549.35ZM2735.77 1545.15 2716.72 1537.24 2719.36 1530.89 2738.4 1538.8ZM2710.37 1534.6 2691.32 1526.69 2693.96 1520.34 2713.01 1528.26ZM2684.97 1524.06 2665.93 1516.14 2668.56 1509.8 2687.61 1517.71ZM2659.58 1513.51 2640.53 1505.6 2643.17 1499.25 2662.21 1507.16ZM2634.18 1502.96 2615.13 1495.05 2617.77 1488.7 2636.82 1496.61ZM2608.78 1492.41 2589.74 1484.5 2592.37 1478.15 2611.42 1486.06ZM2583.39 1481.86 2564.34 1473.95 2566.98 1467.6 2586.02 1475.51ZM2557.99 1471.31 2538.94 1463.4 2541.58 1457.05 2560.63 1464.96ZM2532.59 1460.76 2513.55 1452.85 2516.18 1446.5 2535.23 1454.41ZM2507.2 1450.22 2488.15 1442.3 2490.79 1435.95 2509.84 1443.87ZM2481.8 1439.67 2462.76 1431.75 2465.39 1425.41 2484.44 1433.32ZM2456.41 1429.12 2437.36 1421.21 2440 1414.86 2459.04 1422.77ZM2431.01 1418.57 2411.96 1410.66 2414.6 1404.31 2433.65 1412.22ZM2405.61 1408.02 2386.57 1400.11 2389.2 1393.76 2408.25 1401.67ZM2380.22 1397.47 2361.17 1389.56 2363.81 1383.21 2382.85 1391.12ZM2354.82 1386.92 2335.77 1379.01 2338.41 1372.66 2357.46 1380.57ZM2329.42 1376.37 2310.38 1368.46 2313.01 1362.11 2332.06 1370.03ZM2304.03 1365.83 2298.34 1363.47 2300.98 1357.12 2306.66 1359.48ZM2298.62 1374.75 2278.5 1351.5 2309.17 1349.35Z"/><rect x="1569.5" y="1304.5" width="130" height="92.0001" stroke="#BC0A23" stroke-width="4.58333" stroke-miterlimit="8" fill="#00B0F0"/><rect x="1404.5" y="1397.5" width="874" height="93.0001" stroke="#BC0A23" stroke-width="4.58333" stroke-miterlimit="8" fill="#FFFFFF"/><rect x="1992.5" y="653.5" width="130" height="102" stroke="#BC0A23" stroke-width="4.58333" stroke-miterlimit="8" fill="#00B050"/><path d="M1.51617-3.08507 20.0266 6.01196 16.9942 12.1821-1.51617 3.08507ZM26.1967 9.0443 44.7071 18.1413 41.6748 24.3115 23.1644 15.2144ZM50.8772 21.1737 69.3876 30.2707 66.3553 36.4408 47.8449 27.3438ZM75.5578 33.303 94.0682 42.4001 91.0358 48.5702 72.5254 39.4732ZM100.238 45.4324 118.749 54.5294 115.716 60.6996 97.2059 51.6025ZM124.919 57.5618 143.429 66.6588 140.397 72.8289 121.886 63.7319ZM149.599 69.6911 168.11 78.7882 165.077 84.9583 146.567 75.8613ZM174.28 81.8205 192.79 90.9175 189.758 97.0877 171.248 87.9906ZM198.96 93.9499 217.471 103.047 214.438 109.217 195.928 100.12ZM223.641 106.079 242.151 115.176 239.119 121.346 220.609 112.249ZM248.321 118.209 266.832 127.306 263.799 133.476 245.289 124.379ZM273.002 130.338 291.512 139.435 288.48 145.605 269.97 136.508ZM297.683 142.467 316.193 151.564 313.161 157.734 294.65 148.637ZM322.363 154.597 340.873 163.694 337.841 169.864 319.331 160.767ZM347.044 166.726 365.554 175.823 362.522 181.993 344.011 172.896ZM371.724 178.855 390.234 187.952 387.202 194.123 368.692 185.026ZM396.405 190.985 414.915 200.082 411.883 206.252 393.372 197.155ZM421.085 203.114 439.596 212.211 436.563 218.381 418.053 209.284ZM445.766 215.243 464.276 224.34 461.244 230.511 442.733 221.414ZM470.446 227.373 488.957 236.47 485.924 242.64 467.414 233.543ZM495.127 239.502 513.637 248.599 510.605 254.769 492.094 245.672ZM519.807 251.632 538.318 260.729 535.285 266.899 516.775 257.802ZM544.488 263.761 562.998 272.858 559.966 279.028 541.455 269.931ZM569.168 275.89 587.679 284.987 584.646 291.157 566.136 282.06ZM593.849 288.02 612.359 297.117 609.327 303.287 590.817 294.19ZM618.529 300.149 637.04 309.246 634.007 315.416 615.497 306.319ZM643.21 312.278 661.72 321.375 658.688 327.546 640.178 318.449ZM667.89 324.408 686.401 333.505 683.369 339.675 664.858 330.578ZM692.571 336.537 711.081 345.634 708.049 351.804 689.539 342.707ZM717.251 348.667 735.762 357.764 732.73 363.934 714.219 354.837ZM741.932 360.796 760.443 369.893 757.41 376.063 738.9 366.966ZM766.613 372.925 785.123 382.022 782.091 388.192 763.58 379.095ZM791.293 385.055 809.804 394.152 806.771 400.322 788.261 391.225ZM815.974 397.184 834.484 406.281 831.452 412.451 812.941 403.354ZM840.654 409.313 859.165 418.41 856.132 424.581 837.622 415.483ZM865.335 421.443 883.845 430.54 880.813 436.71 862.302 427.613ZM890.015 433.572 908.526 442.669 905.493 448.839 886.983 439.742ZM914.696 445.701 933.206 454.798 930.174 460.969 911.663 451.872ZM939.376 457.831 957.887 466.928 954.854 473.098 936.344 464.001ZM964.057 469.96 982.567 479.057 979.535 485.227 961.024 476.13ZM988.737 482.09 1007.25 491.187 1004.22 497.357 985.705 488.26ZM1013.42 494.219 1031.93 503.316 1028.9 509.486 1010.39 500.389ZM1038.1 506.348 1056.61 515.445 1053.58 521.615 1035.07 512.518ZM1060.32 505.779 1078.94 530.248 1048.19 530.459Z" transform="matrix(-1 0 0 1 3357.44 177.5)"/><rect x="1404.5" y="1215.5" width="874" height="92.0001" stroke="#BC0A23" stroke-width="4.58333" stroke-miterlimit="8" fill="#FFFFFF"/><path d="M1567.72 1353.58 1548.33 1346.55 1550.68 1340.08 1570.07 1347.12ZM1541.87 1344.2 1522.48 1337.16 1524.83 1330.7 1544.22 1337.74ZM1516.02 1334.82 1496.64 1327.78 1498.98 1321.31 1518.37 1328.35ZM1490.17 1325.43 1470.79 1318.39 1473.13 1311.93 1492.52 1318.97ZM1464.32 1316.05 1444.94 1309.01 1447.28 1302.55 1466.67 1309.58ZM1438.47 1306.66 1419.09 1299.62 1421.43 1293.16 1440.82 1300.2ZM1412.63 1297.28 1393.24 1290.24 1395.58 1283.78 1414.97 1290.81ZM1386.78 1287.89 1367.39 1280.85 1369.74 1274.39 1389.12 1281.43ZM1360.93 1278.51 1341.54 1271.47 1343.89 1265.01 1363.27 1272.05ZM1335.08 1269.12 1315.69 1262.08 1318.04 1255.62 1337.42 1262.66ZM1309.23 1259.74 1289.84 1252.7 1292.19 1246.24 1311.57 1253.28ZM1283.38 1250.35 1263.99 1243.32 1266.34 1236.85 1285.73 1243.89ZM1257.53 1240.97 1238.14 1233.93 1240.49 1227.47 1259.88 1234.51ZM1231.68 1231.58 1212.29 1224.55 1214.64 1218.08 1234.03 1225.12ZM1205.83 1222.2 1186.45 1215.16 1188.79 1208.7 1208.18 1215.74ZM1179.98 1212.82 1160.6 1205.78 1162.94 1199.31 1182.33 1206.35ZM1154.13 1203.43 1134.75 1196.39 1137.09 1189.93 1156.48 1196.97ZM1128.28 1194.05 1108.9 1187.01 1111.24 1180.55 1130.63 1187.58ZM1102.44 1184.66 1083.05 1177.62 1085.39 1171.16 1104.78 1178.2ZM1076.59 1175.28 1057.2 1168.24 1059.55 1161.78 1078.93 1168.81ZM1050.74 1165.89 1031.35 1158.85 1033.7 1152.39 1053.08 1159.43ZM1024.89 1156.51 1005.5 1149.47 1007.85 1143.01 1027.23 1150.05ZM999.039 1147.12 979.652 1140.08 981.998 1133.62 1001.39 1140.66ZM973.19 1137.74 953.803 1130.7 956.149 1124.24 975.536 1131.28ZM947.341 1128.35 936.867 1124.55 939.214 1118.09 949.687 1121.89ZM937.657 1135.81 916.5 1113.5 947.041 1109.96Z"/><rect x="2766.5" y="568.5" width="875" height="92.9998" stroke="#000000" stroke-width="4.58333" stroke-miterlimit="8" fill="none"/><rect x="2766.5" y="1125.5" width="875" height="89" stroke="#000000" stroke-width="4.58333" stroke-miterlimit="8" fill="none"/><rect x="2766.5" y="134.5" width="875" height="89" stroke="#000000" stroke-width="4.58333" stroke-miterlimit="8" fill="none"/><rect x="2766.5" y="1572.5" width="875" height="92.9998" stroke="#000000" stroke-width="4.58333" stroke-miterlimit="8" fill="none"/></g></svg>