<svg width="3490" height="2477" xmlns="http://www.w3.org/2000/svg" xmlns:xlink="http://www.w3.org/1999/xlink" xml:space="preserve" overflow="hidden"><defs><clipPath id="clip0"><rect x="154" y="-2" width="3490" height="2477"/></clipPath></defs><g clip-path="url(#clip0)" transform="translate(-154 2)"><rect x="2766.5" y="0.499836" width="875" height="2472" stroke="#BC0A23" stroke-width="4.58333" stroke-miterlimit="8" fill="#FF1234"/><rect x="156.5" y="1016.5" width="505" height="443" stroke="#BC0A23" stroke-width="4.58333" stroke-miterlimit="8" fill="#FF1234"/><text fill="#FFFFFF" font-family="DIN,DIN_MSFontService,sans-serif" font-weight="400" font-size="83" transform="matrix(1 0 0 1 327.909 1269)">CPU</text><rect x="593.5" y="1064.5" width="323" height="98" stroke="#BC0A23" stroke-width="4.58333" stroke-miterlimit="8" fill="#FF1234"/><text fill="#FFFFFF" font-family="DIN,DIN_MSFontService,sans-serif" font-weight="400" font-size="83" transform="matrix(1 0 0 1 706.376 1144)">R0</text><rect x="593.5" y="1194.5" width="323" height="98" stroke="#BC0A23" stroke-width="4.58333" stroke-miterlimit="8" fill="#FF1234"/><text fill="#FFFFFF" font-family="DIN,DIN_MSFontService,sans-serif" font-weight="400" font-size="83" transform="matrix(1 0 0 1 706.376 1275)">R1</text><rect x="593.5" y="1318.5" width="323" height="99" stroke="#BC0A23" stroke-width="4.58333" stroke-miterlimit="8" fill="#FF1234"/><text fill="#FFFFFF" font-family="DIN,DIN_MSFontService,sans-serif" font-weight="400" font-size="83" transform="matrix(1 0 0 1 706.376 1399)">R2</text><rect x="1404.5" y="568.5" width="874" height="92.9998" stroke="#BC0A23" stroke-width="4.58333" stroke-miterlimit="8" fill="#FFFFFF"/><rect x="1404.5" y="661.5" width="874" height="93.0002" stroke="#BC0A23" stroke-width="4.58333" stroke-miterlimit="8" fill="#FFFFFF"/><rect x="1404.5" y="755.5" width="874" height="91.9998" stroke="#BC0A23" stroke-width="4.58333" stroke-miterlimit="8" fill="#778797"/><rect x="1404.5" y="847.5" width="874" height="93.0002" stroke="#BC0A23" stroke-width="4.58333" stroke-miterlimit="8" fill="#FFFFFF"/><rect x="1404.5" y="940.5" width="874" height="93.0001" stroke="#BC0A23" stroke-width="4.58333" stroke-miterlimit="8" fill="#FFFFFF"/><rect x="1404.5" y="1033.5" width="874" height="91.9998" stroke="#BC0A23" stroke-width="4.58333" stroke-miterlimit="8" fill="#778797"/><rect x="1404.5" y="1123.5" width="874" height="92.0001" stroke="#BC0A23" stroke-width="4.58333" stroke-miterlimit="8" fill="#FFFFFF"/><rect x="1404.5" y="1215.5" width="874" height="92.0001" stroke="#BC0A23" stroke-width="4.58333" stroke-miterlimit="8" fill="#FFFFFF"/><rect x="1404.5" y="1305.5" width="874" height="91.9998" stroke="#BC0A23" stroke-width="4.58333" stroke-miterlimit="8" fill="#FFFFFF"/><rect x="1404.5" y="1397.5" width="874" height="93.0001" stroke="#BC0A23" stroke-width="4.58333" stroke-miterlimit="8" fill="#FFFFFF"/><rect x="1404.5" y="1487.5" width="874" height="93.0001" stroke="#BC0A23" stroke-width="4.58333" stroke-miterlimit="8" fill="#FFFFFF"/><rect x="1404.5" y="1580.5" width="874" height="91.9998" stroke="#BC0A23" stroke-width="4.58333" stroke-miterlimit="8" fill="#FFFFFF"/><rect x="1404.5" y="1669.5" width="874" height="92.9998" stroke="#BC0A23" stroke-width="4.58333" stroke-miterlimit="8" fill="#FFFFFF"/><rect x="1404.5" y="1762.5" width="874" height="92.0001" stroke="#BC0A23" stroke-width="4.58333" stroke-miterlimit="8" fill="#FFFFFF"/><rect x="1404.5" y="1852.5" width="874" height="92.0001" stroke="#BC0A23" stroke-width="4.58333" stroke-miterlimit="8" fill="#FFFFFF"/><rect x="1404.5" y="1944.5" width="874" height="92.9998" stroke="#BC0A23" stroke-width="4.58333" stroke-miterlimit="8" fill="#FFFFFF"/><rect x="2940.5" y="568.5" width="130" height="92.9998" stroke="#BC0A23" stroke-width="4.58333" stroke-miterlimit="8" fill="#00B0F0"/><rect x="1569.5" y="754.5" width="130" height="92.0001" stroke="#BC0A23" stroke-width="4.58333" stroke-miterlimit="8" fill="#00B0F0"/><rect x="3366.5" y="1122.5" width="129" height="92.0001" stroke="#BC0A23" stroke-width="4.58333" stroke-miterlimit="8" fill="#00B050"/><path d="M3363.02 1166.14 3342.46 1164.57 3342.99 1157.71 3363.55 1159.29ZM3335.6 1164.04 3315.04 1162.46 3315.57 1155.61 3336.13 1157.18ZM3308.19 1161.94 3287.62 1160.36 3288.15 1153.5 3308.71 1155.08ZM3280.77 1159.83 3260.2 1158.26 3260.73 1151.4 3281.29 1152.98ZM3253.35 1157.73 3232.78 1156.15 3233.31 1149.3 3253.87 1150.87ZM3225.93 1155.63 3205.36 1154.05 3205.89 1147.19 3226.45 1148.77ZM3198.51 1153.52 3177.94 1151.95 3178.47 1145.09 3199.03 1146.67ZM3171.09 1151.42 3150.52 1149.84 3151.05 1142.99 3171.61 1144.56ZM3143.67 1149.32 3123.1 1147.74 3123.63 1140.88 3144.19 1142.46ZM3116.25 1147.21 3095.68 1145.64 3096.21 1138.78 3116.78 1140.36ZM3088.83 1145.11 3068.27 1143.53 3068.79 1136.68 3089.36 1138.25ZM3061.41 1143.01 3040.85 1141.43 3041.37 1134.57 3061.94 1136.15ZM3033.99 1140.9 3013.43 1139.32 3013.95 1132.47 3034.52 1134.05ZM3006.57 1138.8 2986.01 1137.22 2986.53 1130.37 3007.1 1131.94ZM2979.15 1136.7 2958.59 1135.12 2959.11 1128.26 2979.68 1129.84ZM2951.73 1134.59 2931.17 1133.01 2931.69 1126.16 2952.26 1127.74ZM2924.31 1132.49 2903.75 1130.91 2904.27 1124.06 2924.84 1125.63ZM2896.89 1130.39 2876.33 1128.81 2876.85 1121.95 2897.42 1123.53ZM2869.47 1128.28 2848.91 1126.7 2849.44 1119.85 2870 1121.43ZM2842.05 1126.18 2821.49 1124.6 2822.02 1117.75 2842.58 1119.32ZM2814.64 1124.08 2794.07 1122.5 2794.6 1115.64 2815.16 1117.22ZM2787.22 1121.97 2766.65 1120.39 2767.18 1113.54 2787.74 1115.12ZM2759.8 1119.87 2739.23 1118.29 2739.76 1111.44 2760.32 1113.01ZM2732.38 1117.77 2711.81 1116.19 2712.34 1109.33 2732.9 1110.91ZM2704.96 1115.66 2684.39 1114.08 2684.92 1107.23 2705.48 1108.81ZM2677.54 1113.56 2656.97 1111.98 2657.5 1105.13 2678.06 1106.7ZM2650.12 1111.45 2629.55 1109.88 2630.08 1103.02 2650.64 1104.6ZM2622.7 1109.35 2602.13 1107.77 2602.66 1100.92 2623.23 1102.5ZM2595.28 1107.25 2574.72 1105.67 2575.24 1098.82 2595.81 1100.39ZM2567.86 1105.14 2547.3 1103.57 2547.82 1096.71 2568.39 1098.29ZM2540.44 1103.04 2519.88 1101.46 2520.4 1094.61 2540.97 1096.19ZM2513.02 1100.94 2492.46 1099.36 2492.98 1092.51 2513.55 1094.08ZM2485.6 1098.83 2465.04 1097.26 2465.56 1090.4 2486.13 1091.98ZM2458.18 1096.73 2437.62 1095.15 2438.14 1088.3 2458.71 1089.88ZM2430.76 1094.63 2410.2 1093.05 2410.72 1086.2 2431.29 1087.77ZM2403.34 1092.52 2382.78 1090.95 2383.31 1084.09 2403.87 1085.67ZM2375.92 1090.42 2355.36 1088.84 2355.89 1081.99 2376.45 1083.57ZM2348.5 1088.32 2327.94 1086.74 2328.47 1079.89 2349.03 1081.46ZM2321.09 1086.21 2301.09 1084.68 2301.61 1077.83 2321.61 1079.36ZM2304.87 1095.31 2278.5 1079.5 2306.97 1067.89Z"/><rect x="1928.5" y="1033.5" width="129" height="91.9998" stroke="#BC0A23" stroke-width="4.58333" stroke-miterlimit="8" fill="#00B050"/><path d="M0.551904-3.39291 20.9093-0.0814806 19.8055 6.70433-0.551904 3.39291ZM27.6951 1.02233 48.0526 4.33375 46.9488 11.1196 26.5913 7.80814ZM54.8384 5.43756 75.1958 8.74899 74.092 15.5348 53.7346 12.2234ZM81.9816 9.85279 102.339 13.1642 101.235 19.95 80.8778 16.6386ZM109.125 14.268 129.482 17.5795 128.378 24.3653 108.021 21.0538ZM136.268 18.6833 156.626 21.9947 155.522 28.7805 135.164 25.4691ZM163.411 23.0985 183.769 26.4099 182.665 33.1957 162.308 29.8843ZM190.555 27.5137 210.912 30.8252 209.808 37.611 189.451 34.2995ZM217.698 31.929 238.055 35.2404 236.952 42.0262 216.594 38.7148ZM244.841 36.3442 265.199 39.6556 264.095 46.4414 243.737 43.13ZM271.984 40.7594 292.342 44.0709 291.238 50.8567 270.881 47.5452ZM299.128 45.1747 319.485 48.4861 318.381 55.2719 298.024 51.9605ZM326.271 49.5899 346.628 52.9013 345.525 59.6871 325.167 56.3757ZM353.414 54.0051 373.772 57.3166 372.668 64.1024 352.31 60.7909ZM380.557 58.4204 400.915 61.7318 399.811 68.5176 379.454 65.2062ZM407.701 62.8356 428.058 66.147 426.954 72.9328 406.597 69.6214ZM434.844 67.2508 455.201 70.5622 454.098 77.3481 433.74 74.0366ZM461.987 71.666 482.345 74.9775 481.241 81.7633 460.883 78.4519ZM489.13 76.0813 509.488 79.3927 508.384 86.1785 488.027 82.8671ZM516.274 80.4965 536.631 83.8079 535.527 90.5938 515.17 87.2823ZM543.417 84.9117 563.774 88.2232 562.671 95.009 542.313 91.6976ZM570.56 89.327 590.918 92.6384 589.814 99.4242 569.456 96.1128ZM597.703 93.7422 618.061 97.0536 616.957 103.839 596.6 100.528ZM624.847 98.1574 645.204 101.469 644.1 108.255 623.743 104.943ZM651.99 102.573 672.347 105.884 671.244 112.67 650.886 109.359ZM679.133 106.988 699.491 110.299 698.387 117.085 678.029 113.774ZM706.276 111.403 726.634 114.715 725.53 121.5 705.173 118.189ZM733.42 115.818 753.777 119.13 752.673 125.916 732.316 122.604ZM760.563 120.234 780.92 123.545 779.816 130.331 759.459 127.019ZM787.706 124.649 808.063 127.96 806.96 134.746 786.602 131.435ZM814.849 129.064 835.207 132.376 834.103 139.161 813.745 135.85ZM841.992 133.479 862.35 136.791 861.246 143.577 840.889 140.265ZM869.136 137.895 889.493 141.206 888.389 147.992 868.032 144.68ZM896.279 142.31 916.636 145.621 915.533 152.407 895.175 149.096ZM923.422 146.725 943.78 150.036 942.676 156.822 922.318 153.511ZM950.565 151.14 970.923 154.452 969.819 161.238 949.462 157.926ZM977.709 155.556 989.161 157.418 988.057 164.204 976.605 162.341ZM986.291 146.504 1011.23 164.49 981.876 173.647Z" transform="matrix(-1 0 0 1 1927.73 1079.5)"/><rect x="2766.5" y="568.5" width="875" height="92.9998" stroke="#000000" stroke-width="4.58333" stroke-miterlimit="8" fill="none"/><rect x="2766.5" y="1125.5" width="875" height="89" stroke="#000000" stroke-width="4.58333" stroke-miterlimit="8" fill="none"/></g></svg>