<svg width="3490" height="2477" xmlns="http://www.w3.org/2000/svg" xmlns:xlink="http://www.w3.org/1999/xlink" xml:space="preserve" overflow="hidden"><defs><clipPath id="clip0"><rect x="154" y="-2" width="3490" height="2477"/></clipPath></defs><g clip-path="url(#clip0)" transform="translate(-154 2)"><rect x="2766.5" y="0.499836" width="875" height="2472" stroke="#BC0A23" stroke-width="4.58333" stroke-miterlimit="8" fill="#FF1234"/><rect x="156.5" y="1016.5" width="505" height="443" stroke="#BC0A23" stroke-width="4.58333" stroke-miterlimit="8" fill="#FF1234"/><text fill="#FFFFFF" font-family="DIN,DIN_MSFontService,sans-serif" font-weight="400" font-size="83" transform="matrix(1 0 0 1 327.909 1269)">CPU</text><rect x="593.5" y="1064.5" width="323" height="98" stroke="#BC0A23" stroke-width="4.58333" stroke-miterlimit="8" fill="#FF1234"/><text fill="#FFFFFF" font-family="DIN,DIN_MSFontService,sans-serif" font-weight="400" font-size="83" transform="matrix(1 0 0 1 706.376 1144)">R0</text><rect x="593.5" y="1194.5" width="323" height="98" stroke="#BC0A23" stroke-width="4.58333" stroke-miterlimit="8" fill="#FF1234"/><text fill="#FFFFFF" font-family="DIN,DIN_MSFontService,sans-serif" font-weight="400" font-size="83" transform="matrix(1 0 0 1 706.376 1275)">R1</text><rect x="593.5" y="1318.5" width="323" height="99" stroke="#BC0A23" stroke-width="4.58333" stroke-miterlimit="8" fill="#FF1234"/><text fill="#FFFFFF" font-family="DIN,DIN_MSFontService,sans-serif" font-weight="400" font-size="83" transform="matrix(1 0 0 1 706.376 1399)">R2</text><rect x="1404.5" y="568.5" width="874" height="92.9998" stroke="#BC0A23" stroke-width="4.58333" stroke-miterlimit="8" fill="#FFFFFF"/><rect x="1404.5" y="661.5" width="874" height="93.0002" stroke="#BC0A23" stroke-width="4.58333" stroke-miterlimit="8" fill="#FFFFFF"/><rect x="1404.5" y="755.5" width="874" height="91.9998" stroke="#BC0A23" stroke-width="4.58333" stroke-miterlimit="8" fill="#778797"/><rect x="1404.5" y="847.5" width="874" height="93.0002" stroke="#BC0A23" stroke-width="4.58333" stroke-miterlimit="8" fill="#FFFFFF"/><rect x="1404.5" y="940.5" width="874" height="93.0001" stroke="#BC0A23" stroke-width="4.58333" stroke-miterlimit="8" fill="#FFFFFF"/><rect x="1404.5" y="1033.5" width="874" height="91.9998" stroke="#BC0A23" stroke-width="4.58333" stroke-miterlimit="8" fill="#FFFFFF"/><rect x="1404.5" y="1123.5" width="874" height="92.0001" stroke="#BC0A23" stroke-width="4.58333" stroke-miterlimit="8" fill="#FFFFFF"/><rect x="1404.5" y="1215.5" width="874" height="92.0001" stroke="#BC0A23" stroke-width="4.58333" stroke-miterlimit="8" fill="#FFFFFF"/><rect x="1404.5" y="1305.5" width="874" height="91.9998" stroke="#BC0A23" stroke-width="4.58333" stroke-miterlimit="8" fill="#FFFFFF"/><rect x="1404.5" y="1397.5" width="874" height="93.0001" stroke="#BC0A23" stroke-width="4.58333" stroke-miterlimit="8" fill="#FFFFFF"/><rect x="1404.5" y="1487.5" width="874" height="93.0001" stroke="#BC0A23" stroke-width="4.58333" stroke-miterlimit="8" fill="#FFFFFF"/><rect x="1404.5" y="1580.5" width="874" height="91.9998" stroke="#BC0A23" stroke-width="4.58333" stroke-miterlimit="8" fill="#FFFFFF"/><rect x="1404.5" y="1669.5" width="874" height="92.9998" stroke="#BC0A23" stroke-width="4.58333" stroke-miterlimit="8" fill="#FFFFFF"/><rect x="1404.5" y="1762.5" width="874" height="92.0001" stroke="#BC0A23" stroke-width="4.58333" stroke-miterlimit="8" fill="#FFFFFF"/><rect x="1404.5" y="1852.5" width="874" height="92.0001" stroke="#BC0A23" stroke-width="4.58333" stroke-miterlimit="8" fill="#FFFFFF"/><rect x="1404.5" y="1944.5" width="874" height="92.9998" stroke="#BC0A23" stroke-width="4.58333" stroke-miterlimit="8" fill="#FFFFFF"/><rect x="2940.5" y="568.5" width="130" height="92.9998" stroke="#BC0A23" stroke-width="4.58333" stroke-miterlimit="8" fill="#00B0F0"/><rect x="1569.5" y="754.5" width="130" height="92.0001" stroke="#BC0A23" stroke-width="4.58333" stroke-miterlimit="8" fill="#00B0F0"/><path d="M0.931617-3.30885 20.7847 2.28085 18.9215 8.89855-0.931617 3.30885ZM27.4024 4.14408 47.2555 9.73378 45.3923 16.3515 25.5392 10.7618ZM53.8732 11.597 73.7263 17.1867 71.8631 23.8044 52.01 18.2147ZM80.344 19.0499 100.197 24.6396 98.3339 31.2573 78.4808 25.6676ZM106.815 26.5029 126.668 32.0926 124.805 38.7103 104.952 33.1206ZM133.286 33.9558 153.139 39.5455 151.276 46.1632 131.422 40.5735ZM159.756 41.4087 179.61 46.9984 177.746 53.6161 157.893 48.0264ZM186.227 48.8617 206.08 54.4514 204.217 61.0691 184.364 55.4794ZM212.698 56.3146 232.551 61.9043 230.688 68.522 210.835 62.9323ZM239.169 63.7675 259.022 69.3572 257.159 75.9749 237.306 70.3852ZM265.64 71.2205 285.493 76.8102 283.63 83.4279 263.777 77.8382ZM292.111 78.6734 311.964 84.2631 310.1 90.8808 290.247 85.2911ZM318.581 86.1263 338.434 91.716 336.571 98.3337 316.718 92.744ZM345.052 93.5792 364.905 99.169 363.042 105.787 343.189 100.197ZM371.523 101.032 391.376 106.622 389.513 113.24 369.66 107.65ZM397.994 108.485 417.847 114.075 415.984 120.693 396.131 115.103ZM424.465 115.938 444.318 121.528 442.454 128.145 422.601 122.556ZM450.935 123.391 470.788 128.981 468.925 135.598 449.072 130.009ZM477.406 130.844 497.259 136.434 495.396 143.051 475.543 137.462ZM503.877 138.297 523.73 143.887 521.867 150.504 502.014 144.915ZM530.348 145.75 550.201 151.339 548.338 157.957 528.485 152.367ZM556.819 153.203 576.672 158.792 574.809 165.41 554.955 159.82ZM583.289 160.656 603.143 166.245 601.279 172.863 581.426 167.273ZM609.76 168.109 629.613 173.698 627.75 180.316 607.897 174.726ZM636.231 175.562 640.628 176.799 638.764 183.417 634.368 182.179ZM639.011 165.631 661.755 186.319 631.558 192.101Z" fill="#0D0F11" transform="matrix(-1 0 0 1 2940.25 615.5)"/><path d="M1.46457-3.10989 20.1239 5.67752 17.1948 11.8973-1.46457 3.10989ZM26.3437 8.60665 45.0031 17.3941 42.074 23.6139 23.4146 14.8264ZM51.2229 20.3232 69.8823 29.1106 66.9531 35.3304 48.2937 26.543ZM76.102 32.0398 94.7614 40.8272 91.8323 47.047 73.1729 38.2595ZM100.981 43.7563 119.641 52.5437 116.711 58.7635 98.0521 49.9761ZM125.86 55.4729 144.52 64.2603 141.591 70.4801 122.931 61.6926ZM150.74 67.1894 169.399 75.9768 166.47 82.1966 147.81 73.4092ZM175.619 78.906 194.278 87.6934 191.349 93.9132 172.69 85.1257ZM200.498 90.6225 219.157 99.4099 216.228 105.63 197.569 96.8423ZM225.377 102.339 244.036 111.126 241.107 117.346 222.448 108.559ZM250.256 114.056 268.916 122.843 265.986 129.063 247.327 120.275ZM275.135 125.772 293.795 134.56 290.866 140.779 272.206 131.992ZM300.014 137.489 318.674 146.276 315.745 152.496 297.085 143.709ZM324.894 149.205 343.553 157.993 340.624 164.212 321.964 155.425ZM349.773 160.922 368.432 169.709 365.503 175.929 346.844 167.142ZM374.652 172.638 393.311 181.426 390.382 187.646 371.723 178.858ZM399.531 184.355 418.19 193.142 415.261 199.362 396.602 190.575ZM424.41 196.071 443.07 204.859 440.14 211.079 421.481 202.291ZM449.289 207.788 467.949 216.575 465.02 222.795 446.36 214.008ZM474.169 219.505 492.828 228.292 489.899 234.512 471.239 225.724ZM499.048 231.221 517.707 240.009 514.778 246.228 496.119 237.441ZM523.927 242.938 542.586 251.725 539.657 257.945 520.998 249.157ZM548.806 254.654 567.465 263.442 564.536 269.661 545.877 260.874ZM573.685 266.371 592.345 275.158 589.415 281.378 570.756 272.591ZM598.564 278.087 617.224 286.875 614.295 293.094 595.635 284.307ZM623.443 289.804 633.125 294.363 630.196 300.583 620.514 296.024ZM633.373 283.081 652.393 307.237 621.656 307.96Z" transform="matrix(-1 0 0 1 1568.89 806.5)"/><rect x="2766.5" y="568.5" width="875" height="92.9998" stroke="#000000" stroke-width="4.58333" stroke-miterlimit="8" fill="none"/></g></svg>