<svg width="3490" height="2477" xmlns="http://www.w3.org/2000/svg" xmlns:xlink="http://www.w3.org/1999/xlink" xml:space="preserve" overflow="hidden"><defs><clipPath id="clip0"><rect x="154" y="-2" width="3490" height="2477"/></clipPath></defs><g clip-path="url(#clip0)" transform="translate(-154 2)"><rect x="2766.5" y="0.499836" width="875" height="2472" stroke="#BC0A23" stroke-width="4.58333" stroke-miterlimit="8" fill="#FF1234"/><rect x="156.5" y="1016.5" width="505" height="443" stroke="#BC0A23" stroke-width="4.58333" stroke-miterlimit="8" fill="#FF1234"/><text fill="#FFFFFF" font-family="DIN,DIN_MSFontService,sans-serif" font-weight="400" font-size="83" transform="matrix(1 0 0 1 327.909 1269)">CPU</text><rect x="593.5" y="1064.5" width="323" height="98" stroke="#BC0A23" stroke-width="4.58333" stroke-miterlimit="8" fill="#FF1234"/><text fill="#FFFFFF" font-family="DIN,DIN_MSFontService,sans-serif" font-weight="400" font-size="83" transform="matrix(1 0 0 1 706.376 1144)">R0</text><rect x="593.5" y="1194.5" width="323" height="98" stroke="#BC0A23" stroke-width="4.58333" stroke-miterlimit="8" fill="#FF1234"/><text fill="#FFFFFF" font-family="DIN,DIN_MSFontService,sans-serif" font-weight="400" font-size="83" transform="matrix(1 0 0 1 706.376 1275)">R1</text><rect x="593.5" y="1318.5" width="323" height="99" stroke="#BC0A23" stroke-width="4.58333" stroke-miterlimit="8" fill="#FF1234"/><text fill="#FFFFFF" font-family="DIN,DIN_MSFontService,sans-serif" font-weight="400" font-size="83" transform="matrix(1 0 0 1 706.376 1399)">R2</text><rect x="1404.5" y="568.5" width="874" height="92.9998" stroke="#BC0A23" stroke-width="4.58333" stroke-miterlimit="8" fill="#FFFFFF"/><rect x="1404.5" y="661.5" width="874" height="93.0002" stroke="#BC0A23" stroke-width="4.58333" stroke-miterlimit="8" fill="#FFFFFF"/><rect x="1404.5" y="755.5" width="874" height="91.9998" stroke="#BC0A23" stroke-width="4.58333" stroke-miterlimit="8" fill="#778797"/><rect x="1404.5" y="940.5" width="874" height="93.0001" stroke="#BC0A23" stroke-width="4.58333" stroke-miterlimit="8" fill="#FFFFFF"/><rect x="1404.5" y="1033.5" width="874" height="91.9998" stroke="#BC0A23" stroke-width="4.58333" stroke-miterlimit="8" fill="#FFFFFF"/><rect x="1404.5" y="1123.5" width="874" height="92.0001" stroke="#BC0A23" stroke-width="4.58333" stroke-miterlimit="8" fill="#FFFFFF"/><rect x="1404.5" y="1215.5" width="874" height="92.0001" stroke="#BC0A23" stroke-width="4.58333" stroke-miterlimit="8" fill="#FFFFFF"/><rect x="1404.5" y="1305.5" width="874" height="91.9998" stroke="#BC0A23" stroke-width="4.58333" stroke-miterlimit="8" fill="#FFFFFF"/><rect x="1404.5" y="1397.5" width="874" height="93.0001" stroke="#BC0A23" stroke-width="4.58333" stroke-miterlimit="8" fill="#FFFFFF"/><rect x="1404.5" y="1487.5" width="874" height="93.0001" stroke="#BC0A23" stroke-width="4.58333" stroke-miterlimit="8" fill="#FFFFFF"/><rect x="1404.5" y="1580.5" width="874" height="91.9998" stroke="#BC0A23" stroke-width="4.58333" stroke-miterlimit="8" fill="#FFFFFF"/><rect x="1404.5" y="1669.5" width="874" height="92.9998" stroke="#BC0A23" stroke-width="4.58333" stroke-miterlimit="8" fill="#FFFFFF"/><rect x="1404.5" y="1762.5" width="874" height="92.0001" stroke="#BC0A23" stroke-width="4.58333" stroke-miterlimit="8" fill="#FFFFFF"/><rect x="1404.5" y="1852.5" width="874" height="92.0001" stroke="#BC0A23" stroke-width="4.58333" stroke-miterlimit="8" fill="#FFFFFF"/><rect x="1404.5" y="1944.5" width="874" height="92.9998" stroke="#BC0A23" stroke-width="4.58333" stroke-miterlimit="8" fill="#FFFFFF"/><rect x="2940.5" y="568.5" width="130" height="92.9998" stroke="#BC0A23" stroke-width="4.58333" stroke-miterlimit="8" fill="#00B0F0"/><rect x="1569.5" y="754.5" width="130" height="92.0001" stroke="#BC0A23" stroke-width="4.58333" stroke-miterlimit="8" fill="#00B0F0"/><rect x="3070.5" y="568.5" width="130" height="91.9998" stroke="#BC0A23" stroke-width="4.58333" stroke-miterlimit="8" fill="#00B050"/><rect x="1699.5" y="755.5" width="130" height="90.0001" stroke="#BC0A23" stroke-width="4.58333" stroke-miterlimit="8" fill="#00B050"/><rect x="3200.5" y="568.5" width="130" height="91.9998" stroke="#BC0A23" stroke-width="4.58333" stroke-miterlimit="8" fill="#00B0F0"/><rect x="3330.5" y="568.5" width="130" height="91.9998" stroke="#BC0A23" stroke-width="4.58333" stroke-miterlimit="8" fill="#00B050"/><rect x="1824.5" y="756.5" width="130" height="91.9998" stroke="#BC0A23" stroke-width="4.58333" stroke-miterlimit="8" fill="#00B0F0"/><rect x="1951.5" y="754.5" width="130" height="106" stroke="#BC0A23" stroke-width="4.58333" stroke-miterlimit="8" fill="#00B050"/><rect x="1404.5" y="847.5" width="874" height="93.0002" stroke="#BC0A23" stroke-width="4.58333" stroke-miterlimit="8" fill="#FFFFFF"/><path d="M1.33647-3.16706 20.3388 4.85173 17.6659 11.1859-1.33647 3.16706ZM26.6729 7.52466 45.6753 15.5435 43.0024 21.8776 24 13.8588ZM52.0094 18.2164 71.0118 26.2352 68.3389 32.5693 49.3365 24.5505ZM77.3459 28.9081 96.3483 36.9269 93.6753 43.261 74.673 35.2422ZM102.682 39.5998 121.685 47.6186 119.012 53.9527 100.009 45.934ZM128.019 50.2916 147.021 58.3103 144.348 64.6445 125.346 56.6257ZM153.355 60.9833 172.358 69.0021 169.685 75.3362 150.682 67.3174ZM178.692 71.675 197.694 79.6938 195.021 86.0279 176.019 78.0091ZM204.028 82.3667 223.031 90.3855 220.358 96.7196 201.355 88.7009ZM229.365 93.0585 248.367 101.077 245.694 107.411 226.692 99.3926ZM254.701 103.75 273.704 111.769 271.031 118.103 252.028 110.084ZM280.038 114.442 299.04 122.461 296.367 128.795 277.365 120.776ZM305.374 125.134 324.377 133.152 321.704 139.487 302.701 131.468ZM330.711 135.825 349.713 143.844 347.04 150.178 328.038 142.159ZM356.047 146.517 375.049 154.536 372.377 160.87 353.374 152.851ZM381.384 157.209 400.386 165.228 397.713 171.562 378.711 163.543ZM406.72 167.9 425.722 175.919 423.049 182.253 404.047 174.235ZM432.057 178.592 451.059 186.611 448.386 192.945 429.384 184.926ZM457.393 189.284 476.395 197.303 473.722 203.637 454.72 195.618ZM482.729 199.976 501.732 207.994 499.059 214.329 480.056 206.31ZM508.066 210.667 527.068 218.686 524.395 225.02 505.393 217.001ZM533.402 221.359 552.405 229.378 549.732 235.712 530.729 227.693ZM558.739 232.051 577.741 240.07 575.068 246.404 556.066 238.385ZM584.075 242.743 603.078 250.761 600.405 257.095 581.402 249.077ZM609.412 253.434 628.414 261.453 625.741 267.787 606.739 259.768ZM634.748 264.126 653.751 272.145 651.078 278.479 632.075 270.46ZM660.085 274.818 679.087 282.837 676.414 289.171 657.412 281.152ZM685.421 285.509 704.424 293.528 701.751 299.862 682.748 291.844ZM710.758 296.201 729.76 304.22 727.087 310.554 708.085 302.535ZM736.094 306.893 755.097 314.912 752.424 321.246 733.421 313.227ZM761.431 317.585 780.433 325.603 777.76 331.938 758.758 323.919ZM786.767 328.276 805.769 336.295 803.097 342.629 784.094 334.611ZM812.104 338.968 831.106 346.987 828.433 353.321 809.431 345.302ZM837.44 349.66 856.442 357.679 853.769 364.013 834.767 355.994ZM862.776 360.352 881.779 368.37 879.106 374.704 860.104 366.686ZM888.113 371.043 907.115 379.062 904.442 385.396 885.44 377.377ZM913.449 381.735 932.452 389.754 929.779 396.088 910.777 388.069ZM938.786 392.427 957.788 400.446 955.115 406.78 936.113 398.761ZM964.122 403.118 983.125 411.137 980.452 417.471 961.45 409.453ZM989.459 413.81 1008.46 421.829 1005.79 428.163 986.786 420.144ZM1014.48 413.174 1034.47 436.534 1003.79 438.511Z" transform="matrix(-1 0 0 1 1950.97 807.5)"/><path d="M1.11374-3.25207 20.6262 3.43038 18.3987 9.93453-1.11374 3.25207ZM27.1303 5.65786 46.6428 12.3403 44.4153 18.8445 24.9029 12.162ZM53.1469 14.5678 72.6594 21.2503 70.4319 27.7544 50.9194 21.0719ZM79.1635 23.4777 98.676 30.1602 96.4485 36.6643 76.936 29.9819ZM105.18 32.3877 124.693 39.0701 122.465 45.5743 102.953 38.8918ZM131.197 41.2976 150.709 47.9801 148.482 54.4842 128.969 47.8018ZM157.213 50.2075 176.726 56.89 174.498 63.3941 154.986 56.7117ZM183.23 59.1175 202.742 65.7999 200.515 72.3041 181.002 65.6216ZM209.246 68.0274 228.759 74.7099 226.531 81.214 207.019 74.5316ZM235.263 76.9374 254.775 83.6198 252.548 90.124 233.036 83.4415ZM261.28 85.8473 280.792 92.5297 278.565 99.0339 259.052 92.3514ZM287.296 94.7572 306.809 101.44 304.581 107.944 285.069 101.261ZM313.313 103.667 332.825 110.35 330.598 116.854 311.085 110.171ZM339.329 112.577 358.842 119.26 356.614 125.764 337.102 119.081ZM365.346 121.487 384.858 128.169 382.631 134.674 363.119 127.991ZM391.363 130.397 410.875 137.079 408.648 143.584 389.135 136.901ZM417.379 139.307 436.892 145.989 434.664 152.494 415.152 145.811ZM443.396 148.217 462.908 154.899 460.681 161.403 441.168 154.721ZM469.412 157.127 488.925 163.809 486.697 170.313 467.185 163.631ZM495.429 166.037 514.941 172.719 512.714 179.223 493.201 172.541ZM521.446 174.947 540.958 181.629 538.731 188.133 519.218 181.451ZM547.462 183.857 566.975 190.539 564.747 197.043 545.235 190.361ZM573.479 192.767 592.991 199.449 590.764 205.953 571.251 199.271ZM599.495 201.676 619.008 208.359 616.78 214.863 597.268 208.181ZM625.512 210.586 645.024 217.269 642.797 223.773 623.284 217.091ZM651.529 219.496 671.041 226.179 668.814 232.683 649.301 226ZM677.545 228.406 697.058 235.089 694.83 241.593 675.318 234.91ZM703.562 237.316 723.074 243.999 720.847 250.503 701.334 243.82ZM729.578 246.226 749.091 252.909 746.863 259.413 727.351 252.73ZM755.595 255.136 775.107 261.819 772.88 268.323 753.367 261.64ZM781.612 264.046 801.124 270.728 798.897 277.233 779.384 270.55ZM807.628 272.956 827.141 279.638 824.913 286.143 805.401 279.46ZM833.645 281.866 853.157 288.548 850.93 295.052 831.417 288.37ZM859.661 290.776 879.174 297.458 876.946 303.962 857.434 297.28ZM885.678 299.686 886.931 300.115 884.703 306.619 883.45 306.19ZM885.938 288.874 907.5 310.793 877.028 314.891Z" transform="matrix(-1 0 0 1 1824 802.5)"/><rect x="2766.5" y="568.5" width="875" height="92.9998" stroke="#000000" stroke-width="4.58333" stroke-miterlimit="8" fill="none"/></g></svg>