<svg width="4218" height="430" xmlns="http://www.w3.org/2000/svg" xmlns:xlink="http://www.w3.org/1999/xlink" xml:space="preserve" overflow="hidden"><g transform="translate(-127 -437)"><rect x="143.5" y="590.5" width="249" height="249" stroke="#BC0A23" stroke-width="4.58333" stroke-miterlimit="8" fill="#FFFFFF"/><rect x="390.5" y="590.5" width="249" height="249" stroke="#BC0A23" stroke-width="4.58333" stroke-miterlimit="8" fill="#FFFFFF"/><rect x="637.5" y="590.5" width="249" height="249" stroke="#BC0A23" stroke-width="4.58333" stroke-miterlimit="8" fill="#FFFFFF"/><rect x="884.5" y="590.5" width="249" height="249" stroke="#BC0A23" stroke-width="4.58333" stroke-miterlimit="8" fill="#FFFFFF"/><rect x="1131.5" y="590.5" width="249" height="249" stroke="#BC0A23" stroke-width="4.58333" stroke-miterlimit="8" fill="#FFFFFF"/><rect x="1378.5" y="590.5" width="249" height="249" stroke="#BC0A23" stroke-width="4.58333" stroke-miterlimit="8" fill="#FFFFFF"/><rect x="1625.5" y="590.5" width="249" height="249" stroke="#BC0A23" stroke-width="4.58333" stroke-miterlimit="8" fill="#FFFFFF"/><rect x="1872.5" y="590.5" width="249" height="249" stroke="#BC0A23" stroke-width="4.58333" stroke-miterlimit="8" fill="#FFFFFF"/><rect x="2119.5" y="590.5" width="249" height="249" stroke="#BC0A23" stroke-width="4.58333" stroke-miterlimit="8" fill="#FFFFFF"/><rect x="2366.5" y="590.5" width="249" height="249" stroke="#BC0A23" stroke-width="4.58333" stroke-miterlimit="8" fill="#FFFFFF"/><rect x="2613.5" y="590.5" width="249" height="249" stroke="#BC0A23" stroke-width="4.58333" stroke-miterlimit="8" fill="#FFFFFF"/><rect x="2860.5" y="590.5" width="249" height="249" stroke="#BC0A23" stroke-width="4.58333" stroke-miterlimit="8" fill="#FFFFFF"/><rect x="3107.5" y="590.5" width="249" height="249" stroke="#BC0A23" stroke-width="4.58333" stroke-miterlimit="8" fill="#FFFFFF"/><rect x="3354.5" y="590.5" width="249" height="249" stroke="#BC0A23" stroke-width="4.58333" stroke-miterlimit="8" fill="#FFFFFF"/><rect x="3601.5" y="590.5" width="249" height="249" stroke="#BC0A23" stroke-width="4.58333" stroke-miterlimit="8" fill="#FFFFFF"/><rect x="3848.5" y="590.5" width="249" height="249" stroke="#BC0A23" stroke-width="4.58333" stroke-miterlimit="8" fill="#FFFFFF"/><path d="M418.5 582.5 352.861 541.336 400.812 541.336C389.887 480.886 356.426 439.5 318.475 439.5L346.573 439.5C384.524 439.5 417.985 480.886 428.91 541.336L476.861 541.336Z" fill="#FF1234" fill-rule="evenodd"/><path d="M332.524 441.422C291.029 452.854 260.598 512.542 260.598 582.5L232.5 582.5C232.5 503.523 270.992 439.5 318.475 439.5 323.182 439.5 327.881 440.143 332.524 441.422Z" fill="#CD0E2A" fill-rule="evenodd"/><path d="M332.524 441.422C291.029 452.854 260.598 512.542 260.598 582.5L232.5 582.5C232.5 503.523 270.992 439.5 318.475 439.5L346.573 439.5C384.524 439.5 417.985 480.886 428.91 541.336L476.861 541.336 418.5 582.5 352.861 541.336 400.812 541.336C389.887 480.886 356.426 439.5 318.475 439.5" stroke="#BC0A23" stroke-width="4.58333" stroke-miterlimit="8" fill="none" fill-rule="evenodd"/><rect x="4094.5" y="590.5" width="248" height="249" stroke="#BC0A23" stroke-width="4.58333" stroke-miterlimit="8" fill="#FFFFFF"/><rect x="212.5" y="591.5" width="58.0001" height="249" stroke="#BC0A23" stroke-width="4.58333" stroke-miterlimit="8" fill="#FF1234"/><text fill="#FFFFFF" font-family="DIN,DIN_MSFontService,sans-serif" font-weight="400" font-size="50" transform="matrix(1 0 0 1 226.745 643)">n</text><text fill="#FFFFFF" font-family="DIN,DIN_MSFontService,sans-serif" font-weight="400" font-size="50" transform="matrix(1 0 0 1 226.745 704)">e</text><text fill="#FFFFFF" font-family="DIN,DIN_MSFontService,sans-serif" font-weight="400" font-size="50" transform="matrix(1 0 0 1 226.745 764)">x</text><text fill="#FFFFFF" font-family="DIN,DIN_MSFontService,sans-serif" font-weight="400" font-size="50" transform="matrix(1 0 0 1 226.745 825)">t</text><rect x="146.5" y="590.5" width="58.0001" height="249" stroke="#BC0A23" stroke-width="4.58333" stroke-miterlimit="8" fill="#FF1234"/><text fill="#FFFFFF" font-family="DIN,DIN_MSFontService,sans-serif" font-weight="400" font-size="55" transform="matrix(1 0 0 1 160.209 735)">0</text><rect x="454.5" y="590.5" width="58.0001" height="249" stroke="#BC0A23" stroke-width="4.58333" stroke-miterlimit="8" fill="#FF1234"/><rect x="391.5" y="589.5" width="58.0001" height="249" stroke="#BC0A23" stroke-width="4.58333" stroke-miterlimit="8" fill="#FF1234"/><text fill="#FFFFFF" font-family="DIN,DIN_MSFontService,sans-serif" font-weight="400" font-size="55" transform="matrix(1 0 0 1 405.665 701)">1</text><text fill="#FFFFFF" font-family="DIN,DIN_MSFontService,sans-serif" font-weight="400" font-size="55" transform="matrix(1 0 0 1 405.665 767)">6</text></g></svg>