<svg width="4218" height="430" xmlns="http://www.w3.org/2000/svg" xmlns:xlink="http://www.w3.org/1999/xlink" xml:space="preserve" overflow="hidden"><g transform="translate(-127 -437)"><rect x="143.5" y="590.5" width="249" height="249" stroke="#BC0A23" stroke-width="4.58333" stroke-miterlimit="8" fill="#FFFFFF"/><rect x="390.5" y="590.5" width="249" height="249" stroke="#BC0A23" stroke-width="4.58333" stroke-miterlimit="8" fill="#FFFFFF"/><rect x="637.5" y="590.5" width="249" height="249" stroke="#BC0A23" stroke-width="4.58333" stroke-miterlimit="8" fill="#FFFFFF"/><rect x="884.5" y="590.5" width="249" height="249" stroke="#BC0A23" stroke-width="4.58333" stroke-miterlimit="8" fill="#FFFFFF"/><rect x="1131.5" y="590.5" width="249" height="249" stroke="#BC0A23" stroke-width="4.58333" stroke-miterlimit="8" fill="#FFA0AE"/><rect x="1378.5" y="590.5" width="249" height="249" stroke="#BC0A23" stroke-width="4.58333" stroke-miterlimit="8" fill="#FFA0AE"/><rect x="1625.5" y="590.5" width="249" height="249" stroke="#BC0A23" stroke-width="4.58333" stroke-miterlimit="8" fill="#FFA0AE"/><rect x="1872.5" y="590.5" width="249" height="249" stroke="#BC0A23" stroke-width="4.58333" stroke-miterlimit="8" fill="#FFFFFF"/><rect x="2119.5" y="590.5" width="249" height="249" stroke="#BC0A23" stroke-width="4.58333" stroke-miterlimit="8" fill="#FFFFFF"/><rect x="2366.5" y="590.5" width="249" height="249" stroke="#BC0A23" stroke-width="4.58333" stroke-miterlimit="8" fill="#FFFFFF"/><rect x="2613.5" y="590.5" width="249" height="249" stroke="#BC0A23" stroke-width="4.58333" stroke-miterlimit="8" fill="#FFA0AE"/><rect x="2860.5" y="590.5" width="249" height="249" stroke="#BC0A23" stroke-width="4.58333" stroke-miterlimit="8" fill="#FFA0AE"/><rect x="3107.5" y="590.5" width="249" height="249" stroke="#BC0A23" stroke-width="4.58333" stroke-miterlimit="8" fill="#FFA0AE"/><rect x="3354.5" y="590.5" width="249" height="249" stroke="#BC0A23" stroke-width="4.58333" stroke-miterlimit="8" fill="#FFFFFF"/><rect x="3601.5" y="590.5" width="249" height="249" stroke="#BC0A23" stroke-width="4.58333" stroke-miterlimit="8" fill="#FFFFFF"/><rect x="3848.5" y="590.5" width="249" height="249" stroke="#BC0A23" stroke-width="4.58333" stroke-miterlimit="8" fill="#FFFFFF"/><path d="M418.5 582.5 352.861 541.336 400.812 541.336C389.887 480.886 356.426 439.5 318.475 439.5L346.573 439.5C384.524 439.5 417.985 480.886 428.91 541.336L476.861 541.336Z" fill="#FF1234" fill-rule="evenodd"/><path d="M332.524 441.422C291.029 452.854 260.598 512.542 260.598 582.5L232.5 582.5C232.5 503.523 270.992 439.5 318.475 439.5 323.182 439.5 327.881 440.143 332.524 441.422Z" fill="#CD0E2A" fill-rule="evenodd"/><path d="M332.524 441.422C291.029 452.854 260.598 512.542 260.598 582.5L232.5 582.5C232.5 503.523 270.992 439.5 318.475 439.5L346.573 439.5C384.524 439.5 417.985 480.886 428.91 541.336L476.861 541.336 418.5 582.5 352.861 541.336 400.812 541.336C389.887 480.886 356.426 439.5 318.475 439.5" stroke="#BC0A23" stroke-width="4.58333" stroke-miterlimit="8" fill="none" fill-rule="evenodd"/><rect x="4094.5" y="590.5" width="248" height="249" stroke="#BC0A23" stroke-width="4.58333" stroke-miterlimit="8" fill="#FFFFFF"/><rect x="212.5" y="591.5" width="58.0001" height="249" stroke="#BC0A23" stroke-width="4.58333" stroke-miterlimit="8" fill="#FF1234"/><text fill="#FFFFFF" font-family="DIN,DIN_MSFontService,sans-serif" font-weight="400" font-size="50" transform="matrix(1 0 0 1 226.745 643)">n</text><text fill="#FFFFFF" font-family="DIN,DIN_MSFontService,sans-serif" font-weight="400" font-size="50" transform="matrix(1 0 0 1 226.745 704)">e</text><text fill="#FFFFFF" font-family="DIN,DIN_MSFontService,sans-serif" font-weight="400" font-size="50" transform="matrix(1 0 0 1 226.745 764)">x</text><text fill="#FFFFFF" font-family="DIN,DIN_MSFontService,sans-serif" font-weight="400" font-size="50" transform="matrix(1 0 0 1 226.745 825)">t</text><rect x="146.5" y="590.5" width="58.0001" height="249" stroke="#BC0A23" stroke-width="4.58333" stroke-miterlimit="8" fill="#FF1234"/><text fill="#FFFFFF" font-family="DIN,DIN_MSFontService,sans-serif" font-weight="400" font-size="55" transform="matrix(1 0 0 1 160.209 735)">0</text><rect x="3425.5" y="591.5" width="58" height="249" stroke="#BC0A23" stroke-width="4.58333" stroke-miterlimit="8" fill="#FF1234"/><rect x="3359.5" y="590.5" width="58" height="249" stroke="#BC0A23" stroke-width="4.58333" stroke-miterlimit="8" fill="#FF1234"/><text fill="#FFFFFF" font-family="DIN,DIN_MSFontService,sans-serif" font-weight="400" font-size="55" transform="matrix(1 0 0 1 3373.92 735)">4</text><rect x="393.5" y="592.5" width="57.9997" height="248" stroke="#BC0A23" stroke-width="4.58333" stroke-miterlimit="8" fill="#FF1234"/><text fill="#FFFFFF" font-family="DIN,DIN_MSFontService,sans-serif" font-weight="400" font-size="55" transform="matrix(1 0 0 1 407.266 737)">3</text><rect x="1137.5" y="592.5" width="58.0001" height="248" stroke="#BC0A23" stroke-width="4.58333" stroke-miterlimit="8" fill="#FF1234"/><text fill="#FFFFFF" font-family="DIN,DIN_MSFontService,sans-serif" font-weight="400" font-size="55" transform="matrix(1 0 0 1 1151.6 737)">3</text><rect x="1878.5" y="592.5" width="57.9998" height="248" stroke="#BC0A23" stroke-width="4.58333" stroke-miterlimit="8" fill="#FF1234"/><text fill="#FFFFFF" font-family="DIN,DIN_MSFontService,sans-serif" font-weight="400" font-size="55" transform="matrix(1 0 0 1 1892.27 737)">3</text><rect x="2618.5" y="592.5" width="58" height="248" stroke="#BC0A23" stroke-width="4.58333" stroke-miterlimit="8" fill="#FF1234"/><text fill="#FFFFFF" font-family="DIN,DIN_MSFontService,sans-serif" font-weight="400" font-size="55" transform="matrix(1 0 0 1 2632.93 737)">3</text><rect x="459.5" y="589.5" width="57.9997" height="248" stroke="#BC0A23" stroke-width="4.58333" stroke-miterlimit="8" fill="#FF1234"/><path d="M1904.34 582.5 1787.19 541.336 1860.31 541.336C1770.29 480.886 1494.59 439.5 1181.89 439.5L1209.99 439.5C1522.69 439.5 1798.39 480.886 1888.4 541.336L1961.52 541.336Z" fill="#FF1234" fill-rule="evenodd"/><path d="M1195.94 439.528C810.26 441.073 501.598 504.629 501.598 582.5L473.5 582.5C473.5 503.523 790.659 439.5 1181.89 439.5 1186.58 439.5 1191.26 439.51 1195.94 439.528Z" fill="#CD0E2A" fill-rule="evenodd"/><path d="M1195.94 439.528C810.26 441.073 501.598 504.629 501.598 582.5L473.5 582.5C473.5 503.523 790.659 439.5 1181.89 439.5L1209.99 439.5C1522.69 439.5 1798.39 480.886 1888.4 541.336L1961.52 541.336 1904.34 582.5 1787.19 541.336 1860.31 541.336C1770.29 480.886 1494.59 439.5 1181.89 439.5" stroke="#BC0A23" stroke-width="4.58333" stroke-miterlimit="8" fill="none" fill-rule="evenodd"/><rect x="1944.5" y="591.5" width="57.9998" height="249" stroke="#BC0A23" stroke-width="4.58333" stroke-miterlimit="8" fill="#FF1234"/><path d="M3383.34 582.5 3266.19 541.336 3339.31 541.336C3249.29 480.886 2973.59 439.5 2660.89 439.5L2688.99 439.5C3001.69 439.5 3277.39 480.886 3367.4 541.336L3440.52 541.336Z" fill="#FF1234" fill-rule="evenodd"/><path d="M2674.94 439.528C2289.26 441.073 1980.6 504.629 1980.6 582.5L1952.5 582.5C1952.5 503.523 2269.66 439.5 2660.9 439.5 2665.58 439.5 2670.26 439.51 2674.94 439.528Z" fill="#CD0E2A" fill-rule="evenodd"/><path d="M2674.94 439.528C2289.26 441.073 1980.6 504.629 1980.6 582.5L1952.5 582.5C1952.5 503.523 2269.66 439.5 2660.9 439.5L2688.99 439.5C3001.69 439.5 3277.39 480.886 3367.4 541.336L3440.52 541.336 3383.34 582.5 3266.19 541.336 3339.31 541.336C3249.29 480.886 2973.59 439.5 2660.89 439.5" stroke="#BC0A23" stroke-width="4.58333" stroke-miterlimit="8" fill="none" fill-rule="evenodd"/></g></svg>