<svg width="4218" height="430" xmlns="http://www.w3.org/2000/svg" xmlns:xlink="http://www.w3.org/1999/xlink" xml:space="preserve" overflow="hidden"><g transform="translate(-127 -437)"><rect x="143.5" y="590.5" width="249" height="249" stroke="#BC0A23" stroke-width="4.58333" stroke-miterlimit="8" fill="#FFFFFF"/><rect x="390.5" y="590.5" width="249" height="249" stroke="#BC0A23" stroke-width="4.58333" stroke-miterlimit="8" fill="#FFFFFF"/><rect x="637.5" y="590.5" width="249" height="249" stroke="#BC0A23" stroke-width="4.58333" stroke-miterlimit="8" fill="#FFFFFF"/><rect x="884.5" y="590.5" width="249" height="249" stroke="#BC0A23" stroke-width="4.58333" stroke-miterlimit="8" fill="#FFFFFF"/><rect x="1131.5" y="590.5" width="249" height="249" stroke="#BC0A23" stroke-width="4.58333" stroke-miterlimit="8" fill="#FFA0AE"/><rect x="1378.5" y="590.5" width="249" height="249" stroke="#BC0A23" stroke-width="4.58333" stroke-miterlimit="8" fill="#FFA0AE"/><rect x="1625.5" y="590.5" width="249" height="249" stroke="#BC0A23" stroke-width="4.58333" stroke-miterlimit="8" fill="#FFA0AE"/><rect x="1872.5" y="590.5" width="249" height="249" stroke="#BC0A23" stroke-width="4.58333" stroke-miterlimit="8" fill="#FFA0AE"/><rect x="2119.5" y="590.5" width="249" height="249" stroke="#BC0A23" stroke-width="4.58333" stroke-miterlimit="8" fill="#FFA0AE"/><rect x="2366.5" y="590.5" width="249" height="249" stroke="#BC0A23" stroke-width="4.58333" stroke-miterlimit="8" fill="#FFA0AE"/><rect x="2613.5" y="590.5" width="249" height="249" stroke="#BC0A23" stroke-width="4.58333" stroke-miterlimit="8" fill="#FFA0AE"/><rect x="2860.5" y="590.5" width="249" height="249" stroke="#BC0A23" stroke-width="4.58333" stroke-miterlimit="8" fill="#FFA0AE"/><rect x="3107.5" y="590.5" width="249" height="249" stroke="#BC0A23" stroke-width="4.58333" stroke-miterlimit="8" fill="#FFA0AE"/><rect x="3354.5" y="590.5" width="249" height="249" stroke="#BC0A23" stroke-width="4.58333" stroke-miterlimit="8" fill="#FFFFFF"/><rect x="3601.5" y="590.5" width="249" height="249" stroke="#BC0A23" stroke-width="4.58333" stroke-miterlimit="8" fill="#FFFFFF"/><rect x="3848.5" y="590.5" width="249" height="249" stroke="#BC0A23" stroke-width="4.58333" stroke-miterlimit="8" fill="#FFFFFF"/><path d="M418.5 582.5 352.861 541.336 400.812 541.336C389.887 480.886 356.426 439.5 318.475 439.5L346.573 439.5C384.524 439.5 417.985 480.886 428.91 541.336L476.861 541.336Z" fill="#FF1234" fill-rule="evenodd"/><path d="M332.524 441.422C291.029 452.854 260.598 512.542 260.598 582.5L232.5 582.5C232.5 503.523 270.992 439.5 318.475 439.5 323.182 439.5 327.881 440.143 332.524 441.422Z" fill="#CD0E2A" fill-rule="evenodd"/><path d="M332.524 441.422C291.029 452.854 260.598 512.542 260.598 582.5L232.5 582.5C232.5 503.523 270.992 439.5 318.475 439.5L346.573 439.5C384.524 439.5 417.985 480.886 428.91 541.336L476.861 541.336 418.5 582.5 352.861 541.336 400.812 541.336C389.887 480.886 356.426 439.5 318.475 439.5" stroke="#BC0A23" stroke-width="4.58333" stroke-miterlimit="8" fill="none" fill-rule="evenodd"/><rect x="4094.5" y="590.5" width="248" height="249" stroke="#BC0A23" stroke-width="4.58333" stroke-miterlimit="8" fill="#FFFFFF"/><rect x="212.5" y="591.5" width="58.0001" height="249" stroke="#BC0A23" stroke-width="4.58333" stroke-miterlimit="8" fill="#FF1234"/><text fill="#FFFFFF" font-family="DIN,DIN_MSFontService,sans-serif" font-weight="400" font-size="50" transform="matrix(1 0 0 1 226.745 643)">n</text><text fill="#FFFFFF" font-family="DIN,DIN_MSFontService,sans-serif" font-weight="400" font-size="50" transform="matrix(1 0 0 1 226.745 704)">e</text><text fill="#FFFFFF" font-family="DIN,DIN_MSFontService,sans-serif" font-weight="400" font-size="50" transform="matrix(1 0 0 1 226.745 764)">x</text><text fill="#FFFFFF" font-family="DIN,DIN_MSFontService,sans-serif" font-weight="400" font-size="50" transform="matrix(1 0 0 1 226.745 825)">t</text><rect x="146.5" y="590.5" width="58.0001" height="249" stroke="#BC0A23" stroke-width="4.58333" stroke-miterlimit="8" fill="#FF1234"/><text fill="#FFFFFF" font-family="DIN,DIN_MSFontService,sans-serif" font-weight="400" font-size="55" transform="matrix(1 0 0 1 160.209 735)">0</text><rect x="3425.5" y="591.5" width="58" height="249" stroke="#BC0A23" stroke-width="4.58333" stroke-miterlimit="8" fill="#FF1234"/><rect x="3359.5" y="590.5" width="58" height="249" stroke="#BC0A23" stroke-width="4.58333" stroke-miterlimit="8" fill="#FF1234"/><text fill="#FFFFFF" font-family="DIN,DIN_MSFontService,sans-serif" font-weight="400" font-size="55" transform="matrix(1 0 0 1 3373.92 735)">4</text><rect x="393.5" y="592.5" width="57.9997" height="248" stroke="#BC0A23" stroke-width="4.58333" stroke-miterlimit="8" fill="#FF1234"/><text fill="#FFFFFF" font-family="DIN,DIN_MSFontService,sans-serif" font-weight="400" font-size="55" transform="matrix(1 0 0 1 407.266 737)">3</text><rect x="1137.5" y="592.5" width="58.0001" height="248" stroke="#BC0A23" stroke-width="4.58333" stroke-miterlimit="8" fill="#FF1234"/><text fill="#FFFFFF" font-family="DIN,DIN_MSFontService,sans-serif" font-weight="400" font-size="55" transform="matrix(1 0 0 1 1151.6 737)">3</text><rect x="1878.5" y="592.5" width="57.9998" height="248" stroke="#BC0A23" stroke-width="4.58333" stroke-miterlimit="8" fill="#FF1234"/><text fill="#FFFFFF" font-family="DIN,DIN_MSFontService,sans-serif" font-weight="400" font-size="55" transform="matrix(1 0 0 1 1892.27 737)">3</text><rect x="2618.5" y="592.5" width="58" height="248" stroke="#BC0A23" stroke-width="4.58333" stroke-miterlimit="8" fill="#FF1234"/><text fill="#FFFFFF" font-family="DIN,DIN_MSFontService,sans-serif" font-weight="400" font-size="55" transform="matrix(1 0 0 1 2632.93 737)">3</text><rect x="459.5" y="589.5" width="57.9997" height="248" stroke="#BC0A23" stroke-width="4.58333" stroke-miterlimit="8" fill="#FF1234"/><path d="M3371.34 582.5 3223.15 541.335 3296.26 541.335C3113.05 480.885 2551.86 439.499 1915.4 439.499L1943.49 439.5C2579.96 439.5 3141.14 480.886 3324.36 541.336L3397.47 541.335Z" fill="#FF1234" fill-rule="evenodd"/><path d="M1929.44 439.507C1138.63 440.271 501.599 504.067 501.599 582.5L473.5 582.5C473.5 503.523 1119.06 439.5 1915.39 439.5 1920.08 439.5 1924.76 439.502 1929.44 439.507Z" fill="#CD0E2A" fill-rule="evenodd"/><path d="M1929.44 439.507C1138.63 440.271 501.599 504.067 501.599 582.5L473.5 582.5C473.5 503.523 1119.06 439.5 1915.39 439.5L1943.49 439.5C2579.96 439.5 3141.14 480.886 3324.36 541.336L3397.47 541.335 3371.34 582.5 3223.15 541.335 3296.26 541.335C3113.05 480.885 2551.86 439.499 1915.4 439.499" stroke="#BC0A23" stroke-width="4.58333" stroke-miterlimit="8" fill="none" fill-rule="evenodd"/></g></svg>