<svg width="4218" height="430" xmlns="http://www.w3.org/2000/svg" xmlns:xlink="http://www.w3.org/1999/xlink" xml:space="preserve" overflow="hidden"><g transform="translate(-127 -437)"><rect x="143.5" y="590.5" width="249" height="249" stroke="#BC0A23" stroke-width="4.58333" stroke-miterlimit="8" fill="#FFFFFF"/><rect x="390.5" y="590.5" width="249" height="249" stroke="#BC0A23" stroke-width="4.58333" stroke-miterlimit="8" fill="#FFA0AE"/><rect x="637.5" y="590.5" width="249" height="249" stroke="#BC0A23" stroke-width="4.58333" stroke-miterlimit="8" fill="#FFA0AE"/><rect x="884.5" y="590.5" width="249" height="249" stroke="#BC0A23" stroke-width="4.58333" stroke-miterlimit="8" fill="#FFA0AE"/><rect x="1131.5" y="590.5" width="249" height="249" stroke="#BC0A23" stroke-width="4.58333" stroke-miterlimit="8" fill="#FFFFFF"/><rect x="1378.5" y="590.5" width="249" height="249" stroke="#BC0A23" stroke-width="4.58333" stroke-miterlimit="8" fill="#FFFFFF"/><rect x="1625.5" y="590.5" width="249" height="249" stroke="#BC0A23" stroke-width="4.58333" stroke-miterlimit="8" fill="#FFFFFF"/><rect x="1872.5" y="590.5" width="249" height="249" stroke="#BC0A23" stroke-width="4.58333" stroke-miterlimit="8" fill="#FFFFFF"/><rect x="2119.5" y="590.5" width="249" height="249" stroke="#BC0A23" stroke-width="4.58333" stroke-miterlimit="8" fill="#FFFFFF"/><rect x="2366.5" y="590.5" width="249" height="249" stroke="#BC0A23" stroke-width="4.58333" stroke-miterlimit="8" fill="#FFFFFF"/><rect x="2613.5" y="590.5" width="249" height="249" stroke="#BC0A23" stroke-width="4.58333" stroke-miterlimit="8" fill="#FFFFFF"/><rect x="2860.5" y="590.5" width="249" height="249" stroke="#BC0A23" stroke-width="4.58333" stroke-miterlimit="8" fill="#FFFFFF"/><rect x="3107.5" y="590.5" width="249" height="249" stroke="#BC0A23" stroke-width="4.58333" stroke-miterlimit="8" fill="#FFFFFF"/><rect x="3354.5" y="590.5" width="249" height="249" stroke="#BC0A23" stroke-width="4.58333" stroke-miterlimit="8" fill="#FFFFFF"/><rect x="3601.5" y="590.5" width="249" height="249" stroke="#BC0A23" stroke-width="4.58333" stroke-miterlimit="8" fill="#FFFFFF"/><rect x="3848.5" y="590.5" width="249" height="249" stroke="#BC0A23" stroke-width="4.58333" stroke-miterlimit="8" fill="#FFFFFF"/><path d="M1171.34 582.5 1064.61 541.337 1137.72 541.337C1078.96 480.887 899.001 439.501 694.895 439.501L722.993 439.5C927.099 439.5 1107.06 480.886 1165.82 541.336L1238.93 541.337Z" fill="#FF1234" fill-rule="evenodd"/><path d="M708.945 439.566C459.156 441.915 260.598 505.215 260.598 582.5L232.5 582.5C232.5 503.523 439.521 439.5 694.896 439.5 699.579 439.5 704.263 439.522 708.945 439.566Z" fill="#CD0E2A" fill-rule="evenodd"/><path d="M708.945 439.566C459.156 441.915 260.598 505.215 260.598 582.5L232.5 582.5C232.5 503.523 439.521 439.5 694.896 439.5L722.993 439.5C927.099 439.5 1107.06 480.886 1165.82 541.336L1238.93 541.337 1171.34 582.5 1064.61 541.337 1137.72 541.337C1078.96 480.887 899.001 439.501 694.895 439.501" stroke="#BC0A23" stroke-width="4.58333" stroke-miterlimit="8" fill="none" fill-rule="evenodd"/><rect x="4094.5" y="590.5" width="248" height="249" stroke="#BC0A23" stroke-width="4.58333" stroke-miterlimit="8" fill="#FFFFFF"/><rect x="212.5" y="591.5" width="58.0001" height="249" stroke="#BC0A23" stroke-width="4.58333" stroke-miterlimit="8" fill="#FF1234"/><text fill="#FFFFFF" font-family="DIN,DIN_MSFontService,sans-serif" font-weight="400" font-size="50" transform="matrix(1 0 0 1 226.745 643)">n</text><text fill="#FFFFFF" font-family="DIN,DIN_MSFontService,sans-serif" font-weight="400" font-size="50" transform="matrix(1 0 0 1 226.745 704)">e</text><text fill="#FFFFFF" font-family="DIN,DIN_MSFontService,sans-serif" font-weight="400" font-size="50" transform="matrix(1 0 0 1 226.745 764)">x</text><text fill="#FFFFFF" font-family="DIN,DIN_MSFontService,sans-serif" font-weight="400" font-size="50" transform="matrix(1 0 0 1 226.745 825)">t</text><rect x="146.5" y="590.5" width="58.0001" height="249" stroke="#BC0A23" stroke-width="4.58333" stroke-miterlimit="8" fill="#FF1234"/><text fill="#FFFFFF" font-family="DIN,DIN_MSFontService,sans-serif" font-weight="400" font-size="55" transform="matrix(1 0 0 1 160.209 735)">0</text><rect x="1200.5" y="591.5" width="58.0001" height="249" stroke="#BC0A23" stroke-width="4.58333" stroke-miterlimit="8" fill="#FF1234"/><rect x="1134.5" y="590.5" width="58.0001" height="249" stroke="#BC0A23" stroke-width="4.58333" stroke-miterlimit="8" fill="#FF1234"/><text fill="#FFFFFF" font-family="DIN,DIN_MSFontService,sans-serif" font-weight="400" font-size="55" transform="matrix(1 0 0 1 1148.26 702)">1</text><text fill="#FFFFFF" font-family="DIN,DIN_MSFontService,sans-serif" font-weight="400" font-size="55" transform="matrix(1 0 0 1 1148.26 768)">3</text><rect x="393.5" y="592.5" width="57.9997" height="248" stroke="#BC0A23" stroke-width="4.58333" stroke-miterlimit="8" fill="#FF1234"/><text fill="#FFFFFF" font-family="DIN,DIN_MSFontService,sans-serif" font-weight="400" font-size="55" transform="matrix(1 0 0 1 407.266 737)">3</text></g></svg>