<svg width="3752" height="161" xmlns="http://www.w3.org/2000/svg" xmlns:xlink="http://www.w3.org/1999/xlink" xml:space="preserve" overflow="hidden"><g transform="translate(-187 -546)"><rect x="189.5" y="548.5" width="3747" height="156" stroke="#000000" stroke-width="4.58333" stroke-miterlimit="8" fill="#FFFFFF"/><rect x="189.5" y="548.5" width="599" height="156" stroke="#000000" stroke-width="4.58333" stroke-miterlimit="8" fill="#FF7185"/><rect x="873.5" y="548.5" width="256" height="156" stroke="#000000" stroke-width="4.58333" stroke-miterlimit="8" fill="#FF7185"/><rect x="1128.5" y="548.5" width="166" height="156" stroke="#000000" stroke-width="4.58333" stroke-miterlimit="8" fill="#FF7185"/><rect x="1679.5" y="548.5" width="400" height="156" stroke="#000000" stroke-width="4.58333" stroke-miterlimit="8" fill="#FF7185"/><rect x="2508.5" y="548.5" width="172" height="156" stroke="#000000" stroke-width="4.58333" stroke-miterlimit="8" fill="#FF7185"/><rect x="789.5" y="548.5" width="84.9999" height="156" stroke="#000000" stroke-width="4.58333" stroke-miterlimit="8" fill="#FF7185"/><rect x="1493.5" y="548.5" width="186" height="156" stroke="#000000" stroke-width="4.58333" stroke-miterlimit="8" fill="#FF7185"/><rect x="1380.5" y="548.5" width="112" height="156" stroke="#000000" stroke-width="4.58333" stroke-miterlimit="8" fill="#FF7185"/><rect x="1294.5" y="548.5" width="85.9999" height="156" stroke="#000000" stroke-width="4.58333" stroke-miterlimit="8" fill="#FF7185"/><rect x="2078.5" y="548.5" width="58.9998" height="156" stroke="#000000" stroke-width="4.58333" stroke-miterlimit="8" fill="#FF7185"/><rect x="2137.5" y="548.5" width="63" height="156" stroke="#000000" stroke-width="4.58333" stroke-miterlimit="8" fill="#FF7185"/><rect x="2199.5" y="548.5" width="58.9998" height="156" stroke="#000000" stroke-width="4.58333" stroke-miterlimit="8" fill="#FF7185"/><rect x="2258.5" y="548.5" width="88" height="156" stroke="#000000" stroke-width="4.58333" stroke-miterlimit="8" fill="#FF7185"/><rect x="2346.5" y="548.5" width="104" height="156" stroke="#000000" stroke-width="4.58333" stroke-miterlimit="8" fill="#FF7185"/><rect x="2680.5" y="548.5" width="58.9998" height="156" stroke="#000000" stroke-width="4.58333" stroke-miterlimit="8" fill="#FF7185"/><rect x="2449.5" y="548.5" width="58.9998" height="156" stroke="#000000" stroke-width="4.58333" stroke-miterlimit="8" fill="#FF7185"/><rect x="2740.5" y="548.5" width="171" height="156" stroke="#000000" stroke-width="4.58333" stroke-miterlimit="8" fill="#FF7185"/></g></svg>