<svg width="3753" height="149" xmlns="http://www.w3.org/2000/svg" xmlns:xlink="http://www.w3.org/1999/xlink" xml:space="preserve" overflow="hidden"><g transform="translate(-301 -1650)"><rect x="303.5" y="1652.5" width="3748" height="144" stroke="#000000" stroke-width="4.58333" stroke-miterlimit="8" fill="#FFFFFF"/><rect x="303.5" y="1652.5" width="600" height="144" stroke="#000000" stroke-width="4.58333" stroke-miterlimit="8" fill="#FF7185"/><rect x="1159.5" y="1652.5" width="257" height="144" stroke="#000000" stroke-width="4.58333" stroke-miterlimit="8" fill="#FF7185"/><rect x="1414.5" y="1652.5" width="166" height="144" stroke="#000000" stroke-width="4.58333" stroke-miterlimit="8" fill="#FF7185"/><rect x="2171.5" y="1652.5" width="400" height="144" stroke="#000000" stroke-width="4.58333" stroke-miterlimit="8" fill="#FF7185"/><rect x="3213.5" y="1652.5" width="171" height="144" stroke="#000000" stroke-width="4.58333" stroke-miterlimit="8" fill="#FF7185"/><rect x="966.5" y="1652.5" width="84.9999" height="144" stroke="#000000" stroke-width="4.58333" stroke-miterlimit="8" fill="#FF7185"/><rect x="1930.5" y="1652.5" width="186" height="144" stroke="#000000" stroke-width="4.58333" stroke-miterlimit="8" fill="#FF7185"/><rect x="1806.5" y="1652.5" width="112" height="144" stroke="#000000" stroke-width="4.58333" stroke-miterlimit="8" fill="#FF7185"/><rect x="1625.5" y="1652.5" width="84.9999" height="144" stroke="#000000" stroke-width="4.58333" stroke-miterlimit="8" fill="#FF7185"/><rect x="2603.5" y="1652.5" width="58.9998" height="144" stroke="#000000" stroke-width="4.58333" stroke-miterlimit="8" fill="#FF7185"/><rect x="2702.5" y="1652.5" width="58.9998" height="144" stroke="#000000" stroke-width="4.58333" stroke-miterlimit="8" fill="#FF7185"/><rect x="2801.5" y="1652.5" width="58.9998" height="144" stroke="#000000" stroke-width="4.58333" stroke-miterlimit="8" fill="#FF7185"/><rect x="2871.5" y="1652.5" width="88" height="144" stroke="#000000" stroke-width="4.58333" stroke-miterlimit="8" fill="#FF7185"/><rect x="3000.5" y="1652.5" width="103" height="144" stroke="#000000" stroke-width="4.58333" stroke-miterlimit="8" fill="#FF7185"/><rect x="3582.5" y="1652.5" width="58.9998" height="144" stroke="#000000" stroke-width="4.58333" stroke-miterlimit="8" fill="#FF7185"/><rect x="3131.5" y="1652.5" width="58.9998" height="144" stroke="#000000" stroke-width="4.58333" stroke-miterlimit="8" fill="#FF7185"/><rect x="3745.5" y="1652.5" width="172" height="144" stroke="#000000" stroke-width="4.58333" stroke-miterlimit="8" fill="#FF7185"/></g></svg>