<svg width="1204" height="1773" xmlns="http://www.w3.org/2000/svg" xmlns:xlink="http://www.w3.org/1999/xlink" xml:space="preserve" overflow="hidden"><g transform="translate(-1402 -586)"><rect x="1404.5" y="588.5" width="1199" height="194" stroke="#BC0A23" stroke-width="4.58333" stroke-miterlimit="8" fill="#FF1234"/><text fill="#FFFFFF" font-family="DIN,DIN_MSFontService,sans-serif" font-weight="400" font-size="83" transform="matrix(1 0 0 1 1911.59 717)">Code</text><rect x="1404.5" y="782.5" width="1199" height="195" stroke="#BC0A23" stroke-width="4.58333" stroke-miterlimit="8" fill="#FF7185"/><text fill="#FFFFFF" font-family="DIN,DIN_MSFontService,sans-serif" font-weight="400" font-size="83" transform="matrix(1 0 0 1 1722.82 911)">Static variables</text><rect x="1404.5" y="977.5" width="1199" height="381" stroke="#BC0A23" stroke-width="4.58333" stroke-miterlimit="8" fill="#FF1234"/><text fill="#FFFFFF" font-family="DIN,DIN_MSFontService,sans-serif" font-weight="400" font-size="83" transform="matrix(1 0 0 1 1909.3 1199)">Heap</text><rect x="1404.5" y="2094.5" width="1199" height="262" stroke="#BC0A23" stroke-width="4.58333" stroke-miterlimit="8" fill="#FF1234"/><text fill="#FFFFFF" font-family="DIN,DIN_MSFontService,sans-serif" font-weight="400" font-size="83" transform="matrix(1 0 0 1 1901.57 2256)">Stack</text><path d="M1928.5 1576.5 1960.5 1576.5 1960.5 1358.5 2024.5 1358.5 2024.5 1576.5 2056.5 1576.5 1992.5 1640.5Z" stroke="#000000" stroke-width="4.58333" stroke-miterlimit="8" fill-rule="evenodd"/><path d="M2056.5 1875.5 2024.5 1875.5 2024.5 2094.5 1960.5 2094.5 1960.5 1875.5 1928.5 1875.5 1992.5 1811.5Z" stroke="#000000" stroke-width="4.58333" stroke-miterlimit="8" fill-rule="evenodd"/><rect x="1404.5" y="588.5" width="1199" height="1768" stroke="#000000" stroke-width="4.58333" stroke-miterlimit="8" fill="none"/></g></svg>