<svg width="3490" height="2477" xmlns="http://www.w3.org/2000/svg" xmlns:xlink="http://www.w3.org/1999/xlink" xml:space="preserve" overflow="hidden"><defs><clipPath id="clip0"><rect x="154" y="-2" width="3490" height="2477"/></clipPath></defs><g clip-path="url(#clip0)" transform="translate(-154 2)"><rect x="2766.5" y="0.499836" width="875" height="2472" stroke="#BC0A23" stroke-width="4.58333" stroke-miterlimit="8" fill="#FF1234"/><rect x="156.5" y="1016.5" width="505" height="443" stroke="#BC0A23" stroke-width="4.58333" stroke-miterlimit="8" fill="#FF1234"/><text fill="#FFFFFF" font-family="DIN,DIN_MSFontService,sans-serif" font-weight="400" font-size="83" transform="matrix(1 0 0 1 327.909 1269)">CPU</text><rect x="593.5" y="1064.5" width="323" height="98" stroke="#BC0A23" stroke-width="4.58333" stroke-miterlimit="8" fill="#FF1234"/><text fill="#FFFFFF" font-family="DIN,DIN_MSFontService,sans-serif" font-weight="400" font-size="83" transform="matrix(1 0 0 1 706.376 1144)">R0</text><rect x="593.5" y="1194.5" width="323" height="98" stroke="#BC0A23" stroke-width="4.58333" stroke-miterlimit="8" fill="#FF1234"/><text fill="#FFFFFF" font-family="DIN,DIN_MSFontService,sans-serif" font-weight="400" font-size="83" transform="matrix(1 0 0 1 706.376 1275)">R1</text><rect x="593.5" y="1318.5" width="323" height="99" stroke="#BC0A23" stroke-width="4.58333" stroke-miterlimit="8" fill="#FF1234"/><text fill="#FFFFFF" font-family="DIN,DIN_MSFontService,sans-serif" font-weight="400" font-size="83" transform="matrix(1 0 0 1 706.376 1399)">R2</text><rect x="1404.5" y="568.5" width="874" height="92.9998" stroke="#BC0A23" stroke-width="4.58333" stroke-miterlimit="8" fill="#FFFFFF"/><rect x="1404.5" y="661.5" width="874" height="93.0002" stroke="#BC0A23" stroke-width="4.58333" stroke-miterlimit="8" fill="#FFFFFF"/><rect x="1404.5" y="755.5" width="874" height="91.9998" stroke="#BC0A23" stroke-width="4.58333" stroke-miterlimit="8" fill="#778797"/><rect x="1404.5" y="847.5" width="874" height="93.0002" stroke="#BC0A23" stroke-width="4.58333" stroke-miterlimit="8" fill="#FFFFFF"/><rect x="1404.5" y="940.5" width="874" height="93.0001" stroke="#BC0A23" stroke-width="4.58333" stroke-miterlimit="8" fill="#FFFFFF"/><rect x="1404.5" y="1033.5" width="874" height="91.9998" stroke="#BC0A23" stroke-width="4.58333" stroke-miterlimit="8" fill="#FFFFFF"/><rect x="1404.5" y="1123.5" width="874" height="92.0001" stroke="#BC0A23" stroke-width="4.58333" stroke-miterlimit="8" fill="#FFFFFF"/><rect x="1404.5" y="1215.5" width="874" height="92.0001" stroke="#BC0A23" stroke-width="4.58333" stroke-miterlimit="8" fill="#FFFFFF"/><rect x="1404.5" y="1305.5" width="874" height="91.9998" stroke="#BC0A23" stroke-width="4.58333" stroke-miterlimit="8" fill="#FFFFFF"/><rect x="1404.5" y="1397.5" width="874" height="93.0001" stroke="#BC0A23" stroke-width="4.58333" stroke-miterlimit="8" fill="#FFFFFF"/><rect x="1404.5" y="1487.5" width="874" height="93.0001" stroke="#BC0A23" stroke-width="4.58333" stroke-miterlimit="8" fill="#FFFFFF"/><rect x="1404.5" y="1580.5" width="874" height="91.9998" stroke="#BC0A23" stroke-width="4.58333" stroke-miterlimit="8" fill="#FFFFFF"/><rect x="1404.5" y="1669.5" width="874" height="92.9998" stroke="#BC0A23" stroke-width="4.58333" stroke-miterlimit="8" fill="#FFFFFF"/><rect x="1404.5" y="1762.5" width="874" height="92.0001" stroke="#BC0A23" stroke-width="4.58333" stroke-miterlimit="8" fill="#FFFFFF"/><rect x="1404.5" y="1852.5" width="874" height="92.0001" stroke="#BC0A23" stroke-width="4.58333" stroke-miterlimit="8" fill="#FFFFFF"/><rect x="1404.5" y="1944.5" width="874" height="92.9998" stroke="#BC0A23" stroke-width="4.58333" stroke-miterlimit="8" fill="#FFFFFF"/><rect x="2940.5" y="568.5" width="130" height="92.9998" stroke="#BC0A23" stroke-width="4.58333" stroke-miterlimit="8" fill="#00B0F0"/><rect x="1569.5" y="754.5" width="130" height="92.0001" stroke="#BC0A23" stroke-width="4.58333" stroke-miterlimit="8" fill="#00B0F0"/><path d="M0.931617-3.30885 20.7847 2.28085 18.9215 8.89855-0.931617 3.30885ZM27.4024 4.14408 47.2555 9.73378 45.3923 16.3515 25.5392 10.7618ZM53.8732 11.597 73.7263 17.1867 71.8631 23.8044 52.01 18.2147ZM80.344 19.0499 100.197 24.6396 98.3339 31.2573 78.4808 25.6676ZM106.815 26.5029 126.668 32.0926 124.805 38.7103 104.952 33.1206ZM133.286 33.9558 153.139 39.5455 151.276 46.1632 131.422 40.5735ZM159.756 41.4087 179.61 46.9984 177.746 53.6161 157.893 48.0264ZM186.227 48.8617 206.08 54.4514 204.217 61.0691 184.364 55.4794ZM212.698 56.3146 232.551 61.9043 230.688 68.522 210.835 62.9323ZM239.169 63.7675 259.022 69.3572 257.159 75.9749 237.306 70.3852ZM265.64 71.2205 285.493 76.8102 283.63 83.4279 263.777 77.8382ZM292.111 78.6734 311.964 84.2631 310.1 90.8808 290.247 85.2911ZM318.581 86.1263 338.434 91.716 336.571 98.3337 316.718 92.744ZM345.052 93.5792 364.905 99.169 363.042 105.787 343.189 100.197ZM371.523 101.032 391.376 106.622 389.513 113.24 369.66 107.65ZM397.994 108.485 417.847 114.075 415.984 120.693 396.131 115.103ZM424.465 115.938 444.318 121.528 442.454 128.145 422.601 122.556ZM450.935 123.391 470.788 128.981 468.925 135.598 449.072 130.009ZM477.406 130.844 497.259 136.434 495.396 143.051 475.543 137.462ZM503.877 138.297 523.73 143.887 521.867 150.504 502.014 144.915ZM530.348 145.75 550.201 151.339 548.338 157.957 528.485 152.367ZM556.819 153.203 576.672 158.792 574.809 165.41 554.955 159.82ZM583.289 160.656 603.143 166.245 601.279 172.863 581.426 167.273ZM609.76 168.109 629.613 173.698 627.75 180.316 607.897 174.726ZM636.231 175.562 640.628 176.799 638.764 183.417 634.368 182.179ZM639.011 165.631 661.755 186.319 631.558 192.101Z" fill="#0D0F11" transform="matrix(-1 0 0 1 2940.25 615.5)"/><path d="M1.46457-3.10989 20.1239 5.67752 17.1948 11.8973-1.46457 3.10989ZM26.3437 8.60665 45.0031 17.3941 42.074 23.6139 23.4146 14.8264ZM51.2229 20.3232 69.8823 29.1106 66.9531 35.3304 48.2937 26.543ZM76.102 32.0398 94.7614 40.8272 91.8323 47.047 73.1729 38.2595ZM100.981 43.7563 119.641 52.5437 116.711 58.7635 98.0521 49.9761ZM125.86 55.4729 144.52 64.2603 141.591 70.4801 122.931 61.6926ZM150.74 67.1894 169.399 75.9768 166.47 82.1966 147.81 73.4092ZM175.619 78.906 194.278 87.6934 191.349 93.9132 172.69 85.1257ZM200.498 90.6225 219.157 99.4099 216.228 105.63 197.569 96.8423ZM225.377 102.339 244.036 111.126 241.107 117.346 222.448 108.559ZM250.256 114.056 268.916 122.843 265.986 129.063 247.327 120.275ZM275.135 125.772 293.795 134.56 290.866 140.779 272.206 131.992ZM300.014 137.489 318.674 146.276 315.745 152.496 297.085 143.709ZM324.894 149.205 343.553 157.993 340.624 164.212 321.964 155.425ZM349.773 160.922 368.432 169.709 365.503 175.929 346.844 167.142ZM374.652 172.638 393.311 181.426 390.382 187.646 371.723 178.858ZM399.531 184.355 418.19 193.142 415.261 199.362 396.602 190.575ZM424.41 196.071 443.07 204.859 440.14 211.079 421.481 202.291ZM449.289 207.788 467.949 216.575 465.02 222.795 446.36 214.008ZM474.169 219.505 492.828 228.292 489.899 234.512 471.239 225.724ZM499.048 231.221 517.707 240.009 514.778 246.228 496.119 237.441ZM523.927 242.938 542.586 251.725 539.657 257.945 520.998 249.157ZM548.806 254.654 567.465 263.442 564.536 269.661 545.877 260.874ZM573.685 266.371 592.345 275.158 589.415 281.378 570.756 272.591ZM598.564 278.087 617.224 286.875 614.295 293.094 595.635 284.307ZM623.443 289.804 633.125 294.363 630.196 300.583 620.514 296.024ZM633.373 283.081 652.393 307.237 621.656 307.96Z" transform="matrix(-1 0 0 1 1568.89 806.5)"/><rect x="3070.5" y="568.5" width="130" height="91.9998" stroke="#BC0A23" stroke-width="4.58333" stroke-miterlimit="8" fill="#00B050"/><rect x="1699.5" y="755.5" width="130" height="90.0001" stroke="#BC0A23" stroke-width="4.58333" stroke-miterlimit="8" fill="#00B050"/><path d="M1.69462-2.99077 19.6392 7.17692 16.25 13.1585-1.69462 2.99077ZM25.6207 10.5662 43.5653 20.7338 40.1761 26.7154 22.2315 16.5477ZM49.5469 24.1231 67.4915 34.2908 64.1022 40.2723 46.1576 30.1046ZM73.473 37.68 91.4176 47.8477 88.0284 53.8292 70.0838 43.6615ZM97.3991 51.2369 115.344 61.4046 111.955 67.3861 94.0099 57.2184ZM121.325 64.7938 139.27 74.9615 135.881 80.9431 117.936 70.7754ZM145.251 78.3508 163.196 88.5185 159.807 94.5 141.862 84.3323ZM169.178 91.9077 187.122 102.075 183.733 108.057 165.788 97.8892ZM193.104 105.465 211.048 115.632 207.659 121.614 189.714 111.446ZM217.03 119.022 234.974 129.189 231.585 135.171 213.641 125.003ZM240.956 132.578 258.901 142.746 255.511 148.728 237.567 138.56ZM264.882 146.135 282.827 156.303 279.438 162.285 261.493 152.117ZM288.808 159.692 306.753 169.86 303.364 175.842 285.419 165.674ZM312.734 173.249 330.679 183.417 327.29 189.398 309.345 179.231ZM336.661 186.806 354.605 196.974 351.216 202.955 333.271 192.788ZM360.587 200.363 378.531 210.531 375.142 216.512 357.197 206.345ZM384.513 213.92 402.457 224.088 399.068 230.069 381.124 219.902ZM408.439 227.477 426.384 237.645 422.994 243.626 405.05 233.458ZM432.365 241.034 450.31 251.202 446.92 257.183 428.976 247.015ZM456.291 254.591 474.236 264.758 470.847 270.74 452.902 260.572ZM480.217 268.148 498.162 278.315 494.773 284.297 476.828 274.129ZM504.143 281.705 522.088 291.872 518.699 297.854 500.754 287.686ZM528.07 295.262 546.014 305.429 542.625 311.411 524.68 301.243ZM551.996 308.818 569.94 318.986 566.551 324.968 548.607 314.8ZM575.922 322.375 593.866 332.543 590.477 338.525 572.533 328.357ZM599.848 335.932 617.793 346.1 614.403 352.081 596.459 341.914ZM623.774 349.489 641.719 359.657 638.329 365.638 620.385 355.471ZM647.7 363.046 665.645 373.214 662.256 379.195 644.311 369.028ZM671.626 376.603 689.571 386.771 686.182 392.752 668.237 382.585ZM695.552 390.16 713.497 400.328 710.108 406.309 692.163 396.141ZM719.479 403.717 737.423 413.885 734.034 419.866 716.089 409.698ZM743.405 417.274 761.349 427.441 757.96 433.423 740.016 423.255ZM765.725 418.068 782.872 443.588 752.168 441.994Z" transform="matrix(-1 0 0 1 1699.37 800.5)"/><rect x="2766.5" y="568.5" width="875" height="92.9998" stroke="#000000" stroke-width="4.58333" stroke-miterlimit="8" fill="none"/></g></svg>